<svg xmlns="http://www.w3.org/2000/svg" version="1.1" xmlns:xlink="http://www.w3.org/1999/xlink" xmlns:svgjs="http://svgjs.com/svgjs" width="512" height="512" x="0" y="0" viewBox="0 0 24 24" style="enable-background:new 0 0 512 512" xml:space="preserve" class=""><g><path d="M16 2.25H8A3.383 3.383 0 0 0 4.25 6v15a.75.75 0 0 0 1.122.651L12 17.864l6.628 3.787A.751.751 0 0 0 19.75 21V6A3.383 3.383 0 0 0 16 2.25zm2.25 17.457-5.878-3.358a.748.748 0 0 0-.744 0L5.75 19.708V6c0-1.577.673-2.25 2.25-2.25h8c1.577 0 2.25.673 2.25 2.25zM14.53 8.53 13.061 10l1.469 1.47a.75.75 0 1 1-1.06 1.06L12 11.061l-1.47 1.469a.75.75 0 0 1-1.06-1.06L10.939 10 9.47 8.53a.75.75 0 0 1 1.06-1.06L12 8.939l1.47-1.469a.75.75 0 0 1 1.06 1.06z" fill="#000000" data-original="#000000" class=""></path></g></svg>