<svg width="40" height="31" viewBox="0 0 40 31" fill="none" xmlns="http://www.w3.org/2000/svg">
<path fill-rule="evenodd" clip-rule="evenodd" d="M19.5371 18C26.0653 18 31.3575 13.9706 31.3575 9C31.3575 4.02944 26.0653 0 19.5371 0C13.0089 0 7.7168 4.02944 7.7168 9C7.7168 13.9706 13.0089 18 19.5371 18ZM15.6824 3.71631C12.7642 3.71631 10.3986 6.08198 10.3986 9.00018C10.3986 11.9184 12.7642 14.284 15.6824 14.284H23.2922C26.2104 14.284 28.5761 11.9184 28.5761 9.00018C28.5761 6.08198 26.2104 3.71631 23.2922 3.71631H15.6824Z" fill="#D3D7E4"/>
<rect x="13.8462" y="5.39453" width="2.05128" height="7.19456" rx="1.02564" fill="#D3D7E4"/>
<rect x="23.0771" y="5.39453" width="2.05128" height="7.19456" rx="1.02564" fill="#D3D7E4"/>
<rect x="30.0664" y="6.85156" width="1.78795" height="4.52903" rx="0.893976" fill="#D3D7E4"/>
<rect x="8.90869" y="11.3828" width="1.78795" height="4.52903" rx="0.893976" transform="rotate(-180 8.90869 11.3828)" fill="#D3D7E4"/>
<ellipse cx="4.33948" cy="9.24143" rx="1.26233" ry="1.47581" fill="#D3D7E4"/>
<ellipse cx="34.6354" cy="9.24143" rx="1.26233" ry="1.47581" fill="#D3D7E4"/>
<path d="M0.805664 24.1548V22.7273H6.95268V24.1548H4.74743V30H3.01447V24.1548H0.805664ZM7.31117 30V22.7273H12.3822V24.1548H9.06898V25.6463H12.123V27.0774H9.06898V28.5724H12.3822V30H7.31117ZM19.5846 25.3622H17.809C17.7854 25.1799 17.7368 25.0154 17.6634 24.8686C17.5901 24.7218 17.493 24.5964 17.3722 24.4922C17.2515 24.388 17.1083 24.3087 16.9426 24.2543C16.7792 24.1974 16.5981 24.169 16.3992 24.169C16.0465 24.169 15.7423 24.2554 15.4866 24.4283C15.2333 24.6011 15.038 24.8509 14.9007 25.1776C14.7657 25.5043 14.6982 25.8996 14.6982 26.3636C14.6982 26.8466 14.7669 27.2514 14.9042 27.5781C15.0439 27.9025 15.2392 28.1475 15.4901 28.3132C15.7435 28.4766 16.0429 28.5582 16.3886 28.5582C16.5827 28.5582 16.7591 28.5334 16.9177 28.4837C17.0787 28.4339 17.2195 28.3617 17.3403 28.267C17.4634 28.17 17.564 28.0528 17.6421 27.9155C17.7226 27.7758 17.7783 27.6184 17.809 27.4432L19.5846 27.4538C19.5538 27.7758 19.4603 28.093 19.3041 28.4055C19.1502 28.718 18.9383 29.0033 18.6684 29.2614C18.3985 29.517 18.0695 29.7206 17.6812 29.8722C17.2953 30.0237 16.8526 30.0994 16.3531 30.0994C15.6949 30.0994 15.1054 29.955 14.5846 29.6662C14.0661 29.375 13.6566 28.9512 13.3559 28.3949C13.0552 27.8385 12.9049 27.1615 12.9049 26.3636C12.9049 25.5634 13.0576 24.8852 13.363 24.3288C13.6684 23.7725 14.0815 23.3499 14.6024 23.0611C15.1232 22.7723 15.7068 22.6278 16.3531 22.6278C16.7934 22.6278 17.2006 22.6894 17.5747 22.8125C17.9487 22.9332 18.2778 23.1108 18.5619 23.3452C18.846 23.5772 19.0768 23.8625 19.2544 24.201C19.4319 24.5395 19.542 24.9266 19.5846 25.3622ZM20.0905 30V22.7273H23.1231C23.6676 22.7273 24.1234 22.8042 24.4903 22.9581C24.8596 23.112 25.1366 23.3274 25.3213 23.6044C25.5083 23.8814 25.6018 24.2022 25.6018 24.5668C25.6018 24.8438 25.5438 25.0911 25.4278 25.3089C25.3118 25.5244 25.152 25.7031 24.9484 25.8452C24.7448 25.9872 24.5093 26.0866 24.2417 26.1435V26.2145C24.5353 26.2287 24.8064 26.308 25.055 26.4524C25.3059 26.5968 25.5071 26.7981 25.6586 27.0561C25.8102 27.3118 25.8859 27.6148 25.8859 27.9652C25.8859 28.3558 25.7865 28.705 25.5876 29.0128C25.3888 29.3182 25.1011 29.5597 24.7247 29.7372C24.3483 29.9124 23.8914 30 23.354 30H20.0905ZM21.8483 28.5831H22.9349C23.3161 28.5831 23.5966 28.5109 23.7765 28.3665C23.9588 28.2221 24.05 28.0208 24.05 27.7628C24.05 27.5758 24.0062 27.4148 23.9186 27.2798C23.831 27.1425 23.7067 27.0372 23.5457 26.9638C23.3847 26.888 23.1918 26.8501 22.9669 26.8501H21.8483V28.5831ZM21.8483 25.7173H22.8213C23.0131 25.7173 23.1835 25.6854 23.3327 25.6214C23.4818 25.5575 23.5978 25.4652 23.6807 25.3445C23.7659 25.2237 23.8085 25.0781 23.8085 24.9077C23.8085 24.6638 23.7221 24.4721 23.5493 24.3324C23.3765 24.1927 23.1433 24.1229 22.8497 24.1229H21.8483V25.7173ZM33.0954 26.3636C33.0954 27.1638 32.9416 27.8421 32.6338 28.3984C32.326 28.9548 31.9094 29.3774 31.3838 29.6662C30.8606 29.955 30.2735 30.0994 29.6224 30.0994C28.969 30.0994 28.3807 29.9538 27.8575 29.6626C27.3343 29.3714 26.9188 28.9489 26.6111 28.3949C26.3057 27.8385 26.153 27.1615 26.153 26.3636C26.153 25.5634 26.3057 24.8852 26.6111 24.3288C26.9188 23.7725 27.3343 23.3499 27.8575 23.0611C28.3807 22.7723 28.969 22.6278 29.6224 22.6278C30.2735 22.6278 30.8606 22.7723 31.3838 23.0611C31.9094 23.3499 32.326 23.7725 32.6338 24.3288C32.9416 24.8852 33.0954 25.5634 33.0954 26.3636ZM31.2986 26.3636C31.2986 25.8902 31.2311 25.4901 31.0961 25.1634C30.9636 24.8366 30.7718 24.5893 30.5209 24.4212C30.2723 24.2531 29.9728 24.169 29.6224 24.169C29.2744 24.169 28.9749 24.2531 28.724 24.4212C28.473 24.5893 28.2801 24.8366 28.1452 25.1634C28.0126 25.4901 27.9463 25.8902 27.9463 26.3636C27.9463 26.8371 28.0126 27.2372 28.1452 27.5639C28.2801 27.8906 28.473 28.138 28.724 28.3061C28.9749 28.4742 29.2744 28.5582 29.6224 28.5582C29.9728 28.5582 30.2723 28.4742 30.5209 28.3061C30.7718 28.138 30.9636 27.8906 31.0961 27.5639C31.2311 27.2372 31.2986 26.8371 31.2986 26.3636ZM33.0518 24.1548V22.7273H39.1988V24.1548H36.9935V30H35.2606V24.1548H33.0518Z" fill="#D3D7E4"/>
</svg>

