<svg width="39" height="31" viewBox="0 0 39 31" fill="none" xmlns="http://www.w3.org/2000/svg">
<path d="M38.5123 19.9946C38.5108 19.8986 38.5071 19.7973 38.5019 19.6929C38.4502 18.7087 38.3552 16.9096 37.3233 16.2897C37.2118 16.2224 37.1137 16.1846 37.0696 16.168H35.4375V19.9953H38.5116L38.5123 19.9946Z" fill="#D3D7E4"/>
<path d="M38.5123 19.9109C38.5108 20.0069 38.5071 20.1082 38.5019 20.2125C38.4502 21.1968 38.3552 22.9959 37.3233 23.6158C37.2118 23.6831 37.1137 23.7209 37.0696 23.7375H35.4375V19.9102H38.5116L38.5123 19.9109Z" fill="#D3D7E4"/>
<path d="M0 19.9282C0.00149663 19.8322 0.00523817 19.7309 0.0104764 19.6265C0.0621102 18.6423 0.157146 16.8431 1.18907 16.2233C1.30057 16.156 1.3986 16.1182 1.44275 16.1016H3.07483V19.9289H0.000747905L0 19.9282Z" fill="#D3D7E4"/>
<path d="M0 19.8445C0.00149663 19.9405 0.00523817 20.0418 0.0104764 20.1461C0.0621102 21.1304 0.157146 22.9295 1.18907 23.5494C1.30057 23.6167 1.3986 23.6545 1.44275 23.6711H3.07483V19.8438H0.000747905L0 19.8445Z" fill="#D3D7E4"/>
<path d="M2.11645 19.9299C2.09699 19.406 2.02665 17.5328 2.47564 15.8183C3.07055 13.5459 4.44446 12.062 5.10897 11.3439C8.8064 7.34945 14.7046 6.85581 17.4397 6.62752C19.7206 6.43702 24.6804 6.08323 29.6507 8.68369C32.8715 10.3679 34.2394 12.3213 34.559 12.7953C35.9044 14.7933 36.2539 16.7126 36.3549 17.3907C36.4791 18.229 36.8563 21.051 35.2773 24.0423C33.777 26.8854 31.3614 28.1214 29.8902 28.8796C27.8413 29.9356 26.1569 30.2002 23.7847 30.5729C19.6757 31.2177 16.449 30.8836 15.0459 30.6938C13.0134 30.4187 10.9129 30.1155 8.46142 28.8796C7.37337 28.3307 5.96953 27.6066 4.63079 26.0984C4.08003 25.4786 2.63952 23.8147 2.23618 21.3821C2.15162 20.8726 2.13666 20.4734 2.11645 19.9307V19.9299Z" fill="#D3D7E4"/>
<path d="M33.6012 18.4795C33.6281 21.2984 32.0731 23.2533 31.446 24.0425C30.8406 24.8022 29.9441 25.9309 28.333 26.5817C27.0085 27.1177 25.7663 27.1018 25.22 27.0663C25.1831 27.0638 24.345 26.9022 22.7057 26.5817C21.6401 26.3738 21.0152 26.2544 20.1494 26.2128C19.6443 26.1886 19.2238 26.1992 18.9349 26.2128C18.6453 26.1992 18.2248 26.1886 17.7196 26.2128C16.8546 26.2544 16.229 26.3738 15.1634 26.5817C13.5261 26.9012 12.688 27.0628 12.649 27.0663C12.1028 27.1018 10.8613 27.1184 9.53605 26.5817C7.92568 25.9309 7.02844 24.8022 6.42306 24.0425C5.79597 23.2533 4.24171 21.2984 4.26791 18.4795C4.27165 18.1378 4.30607 16.9532 4.86656 15.5766C5.7361 13.4441 7.27464 12.3011 8.09928 11.707C8.87678 11.1453 9.51136 10.6872 10.4931 10.4967C11.5625 10.2903 12.4956 10.508 13.4857 10.7393C14.6328 11.0069 14.8229 11.2277 15.8795 11.4643C16.9362 11.7009 17.8274 11.7221 18.3939 11.707H19.4714C20.0379 11.7221 20.9284 11.7009 21.9858 11.4643C23.0424 11.2277 23.2325 11.0069 24.3797 10.7393C25.3697 10.508 26.3028 10.2903 27.3722 10.4967C28.354 10.6872 28.9885 11.1453 29.766 11.707C30.5907 12.3011 32.13 13.4441 32.9988 15.5766C33.5593 16.9532 33.5937 18.1378 33.5974 18.4795H33.6012Z" fill="#617196"/>
<path d="M8.67328 18.3473H7.28516V18.7563C7.61965 18.7283 8.10007 18.7079 8.67328 18.7563C9.9776 18.8659 10.9205 19.2567 12.0594 19.7405C12.8609 20.0807 13.467 20.343 14.1914 20.8805C14.6935 21.2532 15.0676 21.6213 15.3198 21.8942C15.5226 20.7376 15.4246 19.801 15.3198 19.2204C15.1904 18.5038 15.0482 17.7191 14.4421 16.9526C14.2243 16.6774 13.7648 16.1112 12.9372 15.8126C12.6798 15.7197 11.8027 15.4415 10.8052 15.8126C9.8429 16.171 9.36622 16.9103 9.17465 17.2066C8.98458 17.5007 8.86934 17.7713 8.79825 17.9671L8.67253 18.3473H8.67328Z" fill="#D3D7E4"/>
<path d="M29.9756 18.2223C30.4381 18.2223 30.9013 18.2223 31.3637 18.2223V18.6313C31.0292 18.6033 30.5488 18.5829 29.9756 18.6313C28.6713 18.7409 27.7284 19.1317 26.5895 19.6155C25.788 19.9557 25.1819 20.218 24.4575 20.7555C23.9554 21.1282 23.5812 21.4963 23.3291 21.7692C23.1263 20.6126 23.2243 19.676 23.3291 19.0954C23.4585 18.3788 23.6007 17.5941 24.2068 16.8276C24.4246 16.5524 24.8841 15.9862 25.7117 15.6876C25.9691 15.5947 26.8462 15.3165 27.8437 15.6876C28.806 16.046 29.2827 16.7853 29.4742 17.0816C29.6643 17.3757 29.7796 17.6463 29.8506 17.8421L29.9764 18.2223H29.9756Z" fill="#D3D7E4"/>
<path d="M17.0783 20.7566C16.9923 20.4519 16.9571 20.1881 16.9414 19.9961C17.1075 20.2206 17.549 20.752 18.3213 21.0098C19.1018 21.2699 19.7611 21.0975 20.0769 21.0098C20.8439 20.7974 21.3452 20.3612 21.5817 20.1231C21.5817 20.2765 21.5667 20.5003 21.4919 20.7566C21.2884 21.4558 20.6995 22.1959 19.8254 22.4038C19.1879 22.5557 18.6633 22.3614 18.4455 22.2768C18.2337 22.1951 17.6411 21.9661 17.3171 21.3901C17.1943 21.1723 17.1285 20.938 17.0776 20.7566H17.0783Z" fill="#D3D7E4"/>
<path d="M23.3233 6.37736C23.1594 6.56029 22.8504 6.50284 22.6491 6.46278C22.0871 6.35014 21.7182 6.03264 21.5535 5.90942C21.1711 5.62443 20.5418 5.52616 19.3198 5.52616C18.0978 5.52616 17.4685 5.62443 17.0861 5.90942C16.9215 6.03264 16.5525 6.35014 15.9906 6.46278C15.7893 6.5036 15.4802 6.56105 15.3163 6.37736C15.1801 6.22465 15.2168 5.98729 15.2318 5.90942C15.246 4.22064 15.2602 2.53261 15.2737 0.843826C15.2789 0.796201 15.3358 0.351704 15.7369 0.120385C16.0639 -0.067846 16.3894 0.0175756 16.453 0.0349624H22.1844C22.248 0.0168196 22.5735 -0.068602 22.9005 0.120385C23.3024 0.351704 23.3592 0.796957 23.3637 0.843826C23.3779 2.53261 23.3922 4.22064 23.4056 5.90942C23.4213 5.98804 23.458 6.22541 23.3211 6.37736H23.3233Z" fill="#D3D7E4"/>
<path d="M19.7421 0.800781H18.6885V4.54725H19.7421V0.800781Z" fill="#617196"/>
<path d="M17.3818 2.11922V3.18359L21.0905 3.18359V2.11922H17.3818Z" fill="#617196"/>
</svg>
