<svg width="39" height="38" viewBox="0 0 39 38" fill="none" xmlns="http://www.w3.org/2000/svg">
<path d="M38.5133 13.8023C38.5118 13.7041 38.5081 13.6006 38.5028 13.4939C38.4512 12.4878 38.3562 10.6487 37.3242 10.015C37.2127 9.94626 37.1147 9.90763 37.0706 9.89062H35.4385V13.803H38.5126L38.5133 13.8023Z" fill="#D3D7E4"/>
<path d="M38.5133 13.7195C38.5118 13.8177 38.5081 13.9212 38.5028 14.0278C38.4512 15.034 38.3562 16.8731 37.3242 17.5067C37.2127 17.5755 37.1147 17.6142 37.0706 17.6312H35.4385V13.7188H38.5126L38.5133 13.7195Z" fill="#D3D7E4"/>
<path d="M0 13.732C0.00149663 13.6338 0.00523817 13.5303 0.0104764 13.4236C0.0621102 12.4175 0.157146 10.5784 1.18907 9.94472C1.30057 9.87595 1.3986 9.83731 1.44275 9.82031H3.07483V13.7327H0.000747905L0 13.732Z" fill="#D3D7E4"/>
<path d="M0 13.6492C0.00149663 13.7473 0.00523817 13.8509 0.0104764 13.9575C0.0621102 14.9637 0.157146 16.8028 1.18907 17.4364C1.30057 17.5052 1.3986 17.5438 1.44275 17.5608H3.07483V13.6484H0.000747905L0 13.6492Z" fill="#D3D7E4"/>
<path d="M2.11645 13.7323C2.09699 13.1968 2.02665 11.282 2.47564 9.52938C3.07055 7.20651 4.44446 5.68961 5.10897 4.9555C8.8064 0.872315 14.7046 0.367712 17.4397 0.134343C19.7206 -0.0603888 24.6804 -0.422034 29.6507 2.23621C32.8715 3.95789 34.2394 5.95466 34.559 6.43917C35.9044 8.48154 36.2539 10.4435 36.3549 11.1367C36.4791 11.9937 36.8563 14.8783 35.2773 17.9361C33.777 20.8424 31.3614 22.1058 29.8902 22.8809C27.8413 23.9604 26.1569 24.2309 23.7847 24.6118C19.6757 25.271 16.449 24.9294 15.0459 24.7355C13.0134 24.4542 10.9129 24.1443 8.46142 22.8809C7.37337 22.3199 5.96953 21.5796 4.63079 20.038C4.08003 19.4043 2.63952 17.7035 2.23618 15.2168C2.15162 14.696 2.13666 14.288 2.11645 13.7331V13.7323Z" fill="#D3D7E4"/>
<path d="M33.6012 12.2486C33.6281 15.1301 32.0731 17.1284 31.446 17.9352C30.8406 18.7118 29.9441 19.8655 28.333 20.5308C27.0085 21.0787 25.7663 21.0625 25.22 21.0262C25.1831 21.0236 24.345 20.8585 22.7057 20.5308C21.6401 20.3183 21.0152 20.1962 20.1494 20.1537C19.6443 20.129 19.2238 20.1398 18.9349 20.1537C18.6453 20.1398 18.2248 20.129 17.7196 20.1537C16.8546 20.1962 16.229 20.3183 15.1634 20.5308C13.5261 20.8575 12.688 21.0226 12.649 21.0262C12.1028 21.0625 10.8613 21.0795 9.53605 20.5308C7.92568 19.8655 7.02844 18.7118 6.42306 17.9352C5.79597 17.1284 4.24171 15.1301 4.26791 12.2486C4.27165 11.8993 4.30607 10.6884 4.86656 9.28122C5.7361 7.1013 7.27464 5.93291 8.09928 5.32553C8.87678 4.75138 9.51136 4.2831 10.4931 4.08836C11.5625 3.87741 12.4956 4.09996 13.4857 4.33642C14.6328 4.60997 14.8229 4.83561 15.8795 5.07748C16.9362 5.31935 17.8274 5.34099 18.3939 5.32553H19.4714C20.0379 5.34099 20.9284 5.31935 21.9858 5.07748C23.0424 4.83561 23.2325 4.60997 24.3797 4.33642C25.3697 4.09996 26.3028 3.87741 27.3722 4.08836C28.354 4.2831 28.9885 4.75138 29.766 5.32553C30.5907 5.93291 32.13 7.1013 32.9988 9.28122C33.5592 10.6884 33.5937 11.8993 33.5974 12.2486H33.6012Z" fill="#617196"/>
<path d="M8.67328 12.1188H7.28516V12.5368C7.61965 12.5082 8.10007 12.4874 8.67328 12.5368C9.9776 12.6489 10.9205 13.0484 12.0594 13.5429C12.8609 13.8907 13.467 14.1588 14.1914 14.7082C14.6935 15.0892 15.0676 15.4655 15.3198 15.7445C15.5226 14.5622 15.4246 13.6047 15.3198 13.0113C15.1904 12.2787 15.0482 11.4766 14.4421 10.693C14.2243 10.4118 13.7648 9.83298 12.9372 9.52774C12.6798 9.43269 11.8027 9.14832 10.8052 9.52774C9.8429 9.89402 9.36622 10.6498 9.17465 10.9527C8.98458 11.2533 8.86934 11.5299 8.79825 11.7301L8.67253 12.1188H8.67328Z" fill="#D3D7E4"/>
<path d="M29.9756 11.9859C30.4381 11.9859 30.9013 11.9859 31.3637 11.9859V12.404C31.0292 12.3754 30.5488 12.3545 29.9756 12.404C28.6713 12.516 27.7284 12.9156 26.5895 13.4101C25.788 13.7578 25.1819 14.026 24.4575 14.5754C23.9554 14.9564 23.5812 15.3327 23.3291 15.6117C23.1263 14.4294 23.2243 13.4719 23.3291 12.8785C23.4585 12.1459 23.6007 11.3438 24.2068 10.5602C24.4246 10.2789 24.8841 9.70016 25.7117 9.39493C25.9691 9.29988 26.8462 9.01551 27.8437 9.39493C28.806 9.76121 29.2827 10.517 29.4742 10.8199C29.6643 11.1205 29.7796 11.3971 29.8506 11.5973L29.9764 11.9859H29.9756Z" fill="#D3D7E4"/>
<path d="M17.0783 14.5782C16.9923 14.2667 16.9571 13.9971 16.9414 13.8008C17.1075 14.0303 17.549 14.5735 18.3213 14.837C19.1018 15.1029 19.7611 14.9267 20.0769 14.837C20.8439 14.6199 21.3452 14.174 21.5817 13.9306C21.5817 14.0875 21.5667 14.3162 21.4919 14.5782C21.2884 15.293 20.6995 16.0495 19.8254 16.262C19.1879 16.4173 18.6633 16.2187 18.4455 16.1322C18.2337 16.0487 17.6411 15.8146 17.3171 15.2257C17.1943 15.0032 17.1285 14.7636 17.0776 14.5782H17.0783Z" fill="#D3D7E4"/>
<path d="M24.8419 31.5514C24.8419 33.0575 25.1285 34.4307 25.6014 35.4391C23.8758 36.5225 21.6683 37.3841 19.258 37.3841C16.8476 37.3841 14.6027 36.6268 12.8711 35.6161C13.3927 34.5937 13.7167 33.1518 13.7167 31.5514C13.7167 29.9511 13.4248 28.6505 12.9459 27.6421C14.6663 26.5703 16.8626 25.7188 19.258 25.7188C21.6533 25.7188 23.932 26.5008 25.6658 27.5316C25.1577 28.5509 24.8419 29.9766 24.8419 31.5514Z" fill="#D3D7E4" stroke="#D3D7E4" stroke-width="0.75" stroke-miterlimit="10"/>
<path d="M12.5713 31.3451C12.5713 32.7376 12.3251 34.0142 11.9158 34.9948C10.2598 33.8148 9.24805 32.4532 9.24805 31.5491C9.24805 30.9108 10.3368 29.4882 12.1059 28.2031C12.4 29.1011 12.5713 30.1814 12.5713 31.3443V31.3451Z" fill="#D3D7E4" stroke="#D3D7E4" stroke-width="0.75" stroke-miterlimit="10"/>
<path d="M13.7165 31.5531C13.7165 33.1527 13.3924 34.5954 12.8709 35.6177C12.5311 35.4191 12.2123 35.2113 11.916 34.9988C12.3253 34.0181 12.5715 32.7416 12.5715 31.3491C12.5715 30.1861 12.4002 29.1058 12.1061 28.2079C12.371 28.0147 12.6494 27.8269 12.9464 27.6445C13.4254 28.653 13.7172 30.0346 13.7172 31.5539L13.7165 31.5531Z" fill="#617196" stroke="#D3D7E4" stroke-width="0.75" stroke-miterlimit="10"/>
<path d="M26.0451 31.5511C26.0451 32.7558 26.2299 33.8747 26.5457 34.792C26.2516 35.013 25.9358 35.2309 25.6013 35.4388C25.1277 34.4303 24.8418 33.0572 24.8418 31.5511C24.8418 30.045 25.1576 28.5505 25.6657 27.5312C26.0002 27.7275 26.313 27.9315 26.6048 28.1417C26.2546 29.0868 26.0458 30.2722 26.0458 31.5511H26.0451Z" fill="#617196" stroke="#D3D7E4" stroke-width="0.75" stroke-miterlimit="10"/>
<path d="M29.2642 31.55C29.2642 32.1689 28.2315 33.5367 26.5455 34.7909C26.2298 33.8736 26.0449 32.7547 26.0449 31.55C26.0449 30.2711 26.2537 29.0857 26.6039 28.1406C28.2547 29.3283 29.2634 30.6853 29.2634 31.55H29.2642Z" fill="#D3D7E4" stroke="#D3D7E4" stroke-width="0.75" stroke-miterlimit="10"/>
<path d="M23.676 31.2422H14.8369V31.7537H23.676V31.2422Z" fill="#617196" stroke="#D3D7E4" stroke-width="0.25" stroke-miterlimit="10"/>
<path d="M16.4713 30.3945H15.916V32.6046H16.4713V30.3945Z" fill="#617196" stroke="#D3D7E4" stroke-width="0.25" stroke-miterlimit="10"/>
<path d="M17.7008 30.3945H17.1455V32.6046H17.7008V30.3945Z" fill="#617196" stroke="#D3D7E4" stroke-width="0.25" stroke-miterlimit="10"/>
<path d="M22.6451 30.3945H22.0898V32.6046H22.6451V30.3945Z" fill="#617196" stroke="#D3D7E4" stroke-width="0.25" stroke-miterlimit="10"/>
<path d="M21.4371 30.3945H20.8818V32.6046H21.4371V30.3945Z" fill="#617196" stroke="#D3D7E4" stroke-width="0.25" stroke-miterlimit="10"/>
<path d="M20.2476 30.3945H19.6924V32.6046H20.2476V30.3945Z" fill="#617196" stroke="#D3D7E4" stroke-width="0.25" stroke-miterlimit="10"/>
<path d="M18.9097 30.3945H18.3545V32.6046H18.9097V30.3945Z" fill="#617196" stroke="#D3D7E4" stroke-width="0.25" stroke-miterlimit="10"/>
</svg>
