<svg width="40" height="40" viewBox="0 0 40 40" fill="none" xmlns="http://www.w3.org/2000/svg">
<path fill-rule="evenodd" clip-rule="evenodd" d="M20 12.9358C20 12.6664 19.7871 12.445 19.5178 12.4401C16.8332 12.3915 13.0219 12.7077 9.20469 14.684C5.85999 16.4162 4.43856 18.4236 4.10696 18.9116C3.21469 20.2229 2.74399 21.501 2.49321 22.4355H1.49764C1.45112 22.4523 1.35015 22.4909 1.23434 22.5602C0.163321 23.1977 0.064338 25.0477 0.010886 26.0593C0.00661019 26.1369 0.00387688 26.2125 0.001943 26.2857H0L0.000901428 26.3279L0 26.3701H0.001943C0.00387688 26.4433 0.00661019 26.5189 0.010886 26.5965C0.064338 27.6081 0.163321 29.4581 1.23434 30.0956C1.35015 30.1649 1.45112 30.2035 1.49764 30.2203H3.19227V30.1446C3.24585 30.2541 3.30193 30.364 3.36061 30.474C4.91168 33.3822 7.40237 34.6541 8.93182 35.4351L8.95525 35.447C11.0834 36.5329 12.8325 36.8051 15.2962 37.1882C19.5635 37.8514 22.9151 37.5079 24.3722 37.3129C26.4835 37.0298 28.6642 36.718 31.2101 35.448C32.3405 34.8838 33.7975 34.1394 35.1883 32.5884C35.5512 32.1839 36.2859 31.3477 36.8815 30.1515H38.5024C38.5489 30.1347 38.6498 30.0961 38.7657 30.0268C39.8367 29.3893 39.9357 27.5393 39.9891 26.5277C39.9934 26.4504 39.9961 26.3751 39.998 26.3022H40L39.9991 26.2595L40 26.2169H39.998C39.9961 26.144 39.9934 26.0687 39.9891 25.9914C39.9357 24.9798 39.8367 23.1297 38.7657 22.4923C38.6498 22.423 38.5489 22.3844 38.5024 22.3676H37.5129C37.4869 22.2515 37.4587 22.1358 37.4283 22.0207C37.377 21.8269 37.3202 21.6386 37.2587 21.4558C37.1924 21.2591 37.0051 21.1311 36.7974 21.1311H35.3833C35.0353 21.1311 34.8093 21.503 34.9418 21.8247C35.5238 23.2402 35.5595 24.4577 35.5634 24.8091C35.5911 27.7049 33.9795 29.7133 33.3271 30.5264L33.3254 30.5285L33.3217 30.533C32.6932 31.314 31.7621 32.4709 30.0925 33.1387C28.7166 33.69 27.4268 33.6732 26.8597 33.6366C26.8194 33.6333 25.949 33.4673 24.2484 33.1387C23.1418 32.9249 22.4924 32.8021 21.5937 32.7596C21.069 32.7348 20.6325 32.7457 20.3316 32.7596C20.0317 32.7457 19.5951 32.7348 19.0705 32.7596C18.1717 32.8021 17.5224 32.9249 16.4158 33.1387C14.7132 33.468 13.8428 33.634 13.8045 33.6366C13.2373 33.6732 11.9476 33.69 10.5717 33.1387C8.90209 32.4709 7.97101 31.314 7.3425 30.533L7.33882 30.5285L7.33714 30.5264C6.68472 29.7133 5.07308 27.7049 5.10077 24.8091C5.10473 24.4577 5.14037 23.2402 5.7224 21.8247C6.62514 19.6322 8.22375 18.4573 9.07997 17.8465L9.08073 17.846C9.8881 17.2692 10.5473 16.7982 11.5665 16.6023C12.6771 16.3905 13.6461 16.6142 14.6746 16.8518C15.2728 16.9899 15.6203 17.1158 15.957 17.2377C16.291 17.3587 16.6143 17.4758 17.1611 17.5971C17.938 17.7694 18.7137 17.8272 19.5 17.8422C19.7761 17.8474 20 17.6227 20 17.3465V12.9358ZM32.4335 24.6759H30.992L30.8616 24.2859C30.7884 24.085 30.6676 23.8059 30.4706 23.504L30.4692 23.5018C30.2693 23.1965 29.7734 22.439 28.777 22.0717C27.7406 21.6896 26.83 21.9756 26.5627 22.0717C25.7025 22.3785 25.2254 22.9605 24.9997 23.2436C24.3702 24.0316 24.2227 24.8373 24.0881 25.5747C23.9792 26.1716 23.8772 27.1337 24.0881 28.3235C24.3494 28.0424 24.7384 27.6643 25.2601 27.2812C26.0124 26.7289 26.6419 26.4596 27.4744 26.1092C28.6572 25.6113 29.6362 25.2095 30.9913 25.0966C31.5872 25.0471 32.0861 25.0679 32.4335 25.0966V24.6759ZM8.86555 24.5452H7.424V24.9659C7.77144 24.9372 8.27032 24.9164 8.86621 24.9659C10.2213 25.0787 11.2003 25.4806 12.3831 25.9785C13.2156 26.3289 13.8452 26.5981 14.5974 27.1504C15.1191 27.5335 15.5081 27.9116 15.7694 28.1928C15.9803 27.003 15.8783 26.0408 15.7694 25.444C15.6348 24.7065 15.4873 23.9008 14.8578 23.1129C14.6321 22.8298 14.155 22.2477 13.2948 21.9409C13.0275 21.8449 12.1169 21.5588 11.0805 21.9409C10.0841 22.3082 9.5882 23.0657 9.38829 23.371L9.38687 23.3732C9.18989 23.6751 9.06913 23.9542 8.99588 24.1552L8.86555 24.5452ZM22.2619 27.151C22.351 26.8382 22.3876 26.566 22.4035 26.3691C22.2312 26.5997 21.7729 27.1461 20.9711 27.4114C20.1605 27.6786 19.4765 27.5014 19.1478 27.4114C18.351 27.1926 17.8303 26.7442 17.5849 26.4997C17.5849 26.6571 17.6007 26.8877 17.6779 27.151C17.8887 27.8707 18.5015 28.6309 19.4082 28.8447C20.0704 29.0011 20.615 28.801 20.8407 28.7139C21.0606 28.6297 21.676 28.3941 22.0125 27.8024C22.1392 27.5787 22.2085 27.3371 22.2609 27.151H22.2619Z" fill="#D3D7E4"/>
<path d="M36.1263 12.3136C36.1582 12.0744 36.1742 11.8273 36.1742 11.5643C36.1742 11.3092 36.1582 11.0541 36.1184 10.815L37.7365 9.55559C37.88 9.44399 37.9198 9.22878 37.8321 9.06936L36.3017 6.42298C36.206 6.24762 36.0068 6.19182 35.8314 6.24762L33.9263 7.01283C33.5278 6.70994 33.1053 6.45486 32.635 6.26356L32.3481 4.23892C32.3162 4.04762 32.1568 3.91211 31.9655 3.91211H28.9046C28.7133 3.91211 28.5618 4.04762 28.53 4.23892L28.243 6.26356C27.7727 6.45486 27.3423 6.71791 26.9517 7.01283L25.0466 6.24762C24.8713 6.18385 24.672 6.24762 24.5763 6.42298L23.0539 9.06936C22.9582 9.23675 22.9901 9.44399 23.1495 9.55559L24.7676 10.815C24.7278 11.0541 24.6959 11.3172 24.6959 11.5643C24.6959 11.8114 24.7118 12.0744 24.7517 12.3136L23.1336 13.573C22.9901 13.6846 22.9503 13.8998 23.0379 14.0592L24.5684 16.7056C24.664 16.881 24.8633 16.9367 25.0387 16.881L26.9437 16.1157C27.3423 16.4186 27.7647 16.6737 28.235 16.865L28.522 18.8896C28.5618 19.081 28.7133 19.2165 28.9046 19.2165H31.9655C32.1568 19.2165 32.3162 19.081 32.3401 18.8896L32.6271 16.865C33.0974 16.6737 33.5278 16.4186 33.9184 16.1157L35.8234 16.881C35.9988 16.9447 36.1981 16.881 36.2937 16.7056L37.8242 14.0592C37.9198 13.8838 37.88 13.6846 37.7285 13.573L36.1263 12.3136ZM30.435 14.4338C28.8568 14.4338 27.5655 13.1425 27.5655 11.5643C27.5655 9.98602 28.8568 8.69472 30.435 8.69472C32.0133 8.69472 33.3046 9.98602 33.3046 11.5643C33.3046 13.1425 32.0133 14.4338 30.435 14.4338Z" fill="#D3D7E4"/>
</svg>
