<svg width="40" height="34" viewBox="0 0 40 34" fill="none" xmlns="http://www.w3.org/2000/svg">
<path d="M21.7655 28.9927H21.7344V28.9609L21.7655 28.9927Z" fill="#FABC1B"/>
<path d="M21.7351 28.9531V28.9628L21.7285 28.9563L21.7351 28.9531Z" fill="#FABC1B"/>
<path d="M39.4078 13.1967C39.4063 13.103 39.4027 13.0039 39.3976 12.9019C39.3479 11.9396 39.2574 10.1812 38.274 9.57572C38.1674 9.50995 38.0747 9.47291 38.0323 9.45703H36.4766V13.1975H39.4078V13.1967Z" fill="#D3D7E4"/>
<path d="M39.4078 13.114C39.4063 13.2078 39.4027 13.3068 39.3976 13.4089C39.3479 14.3712 39.2574 16.1295 38.274 16.735C38.1674 16.8008 38.0747 16.8378 38.0323 16.8537H36.4766V13.1133H39.4078V13.114Z" fill="#D3D7E4"/>
<path d="M2.68457 13.1303C2.68603 13.0366 2.68968 12.9375 2.69479 12.8355C2.74444 11.8732 2.83496 10.1148 3.81836 9.50931C3.92495 9.44354 4.01767 9.4065 4.06001 9.39062H5.61578V13.1311H2.68457V13.1303Z" fill="#D3D7E4"/>
<path d="M2.68457 13.0476C2.68603 13.1414 2.68968 13.2404 2.69479 13.3424C2.74444 14.3048 2.83496 16.0631 3.81836 16.6686C3.92495 16.7344 4.01767 16.7714 4.06001 16.7873H5.61578V13.0469H2.68457V13.0476Z" fill="#D3D7E4"/>
<path d="M4.70292 13.1301C4.68393 12.6183 4.61677 10.7874 5.04532 9.1115C5.61258 6.89053 6.92231 5.43987 7.55674 4.73835C11.0822 0.834643 16.7066 0.352349 19.3144 0.128589C21.4893 -0.0581297 26.2179 -0.402841 30.9575 2.1379C34.0282 3.78435 35.3328 5.69311 35.6379 6.15651C36.9207 8.10912 37.2543 9.98462 37.3499 10.6476C37.4682 11.467 37.8281 14.2247 36.3227 17.1487C34.8918 19.9276 32.5892 21.1348 31.186 21.8764C29.2324 22.909 27.6262 23.1668 25.3645 23.5312C21.4469 24.1616 18.3697 23.8351 17.0315 23.6491C15.0932 23.38 13.0906 23.0837 10.753 21.8764C9.71554 21.3405 8.37733 20.6321 7.10045 19.158C6.57553 18.5518 5.20155 16.9257 4.81753 14.5483C4.73723 14.0501 4.72263 13.66 4.70365 13.1301H4.70292Z" fill="#D3D7E4"/>
<path d="M34.7242 11.7107C34.7498 14.4661 33.2678 16.3764 32.6698 17.1475C32.0931 17.8898 31.2375 18.9927 29.7021 19.6285C28.4391 20.1523 27.255 20.1365 26.7344 20.1017C26.6994 20.0992 25.9002 19.9414 24.3369 19.6285C23.3206 19.4251 22.7249 19.3087 21.8999 19.2679C21.4181 19.2444 21.0173 19.255 20.7413 19.2679C20.4661 19.255 20.0653 19.2444 19.5834 19.2679C18.7585 19.3087 18.162 19.4251 17.1465 19.6285C15.5851 19.9409 14.7859 20.0987 14.7489 20.1017C14.2284 20.1365 13.0442 20.1523 11.7812 19.6285C10.2452 18.9927 9.39027 17.8898 8.81352 17.1475C8.21559 16.3756 6.73356 14.4654 6.75912 11.7107C6.76277 11.3766 6.79562 10.2192 7.33003 8.87362C8.15865 6.78947 9.62681 5.67218 10.4124 5.09161C11.1541 4.5428 11.7593 4.09528 12.6953 3.90856C13.7152 3.70748 14.6044 3.9199 15.5491 4.14593C16.6435 4.40748 16.8238 4.62293 17.832 4.85425C18.8395 5.08557 19.6893 5.10673 20.2295 5.09161H21.2575C21.797 5.10673 22.6468 5.08632 23.6535 4.85425C24.6625 4.62293 24.8428 4.40748 25.9372 4.14593C26.8812 3.9199 27.7711 3.70748 28.791 3.90856C29.727 4.09452 30.3322 4.5428 31.0739 5.09161C31.8587 5.67218 33.3276 6.78947 34.1555 8.87362C34.6907 10.2192 34.7235 11.3766 34.7272 11.7107H34.7242Z" fill="#617196"/>
<path d="M18.547 10.0825C18.5207 10.0228 18.4937 9.9631 18.4645 9.90413C18.3835 9.73556 18.2908 9.57227 18.1893 9.41503C18.1258 9.31601 18.0579 9.21924 17.9871 9.12475C17.2117 8.09893 16.0414 7.40648 14.7127 7.29082C14.5813 7.27873 14.4492 7.27344 14.3156 7.27344C12.6992 7.27344 11.2741 8.12388 10.4418 9.41503C10.3418 9.57227 10.2484 9.73556 10.1666 9.90413C10.1374 9.9631 10.1097 10.0228 10.0841 10.0825C9.81544 10.6858 9.66797 11.3563 9.66797 12.0624C9.66797 12.0767 9.66797 12.0911 9.6687 12.1054C9.67308 12.6407 9.76215 13.1547 9.92568 13.634C9.99504 13.8426 10.079 14.0452 10.1746 14.2395C10.2827 14.458 10.4068 14.6666 10.5462 14.8639C10.6039 14.9471 10.6645 15.0287 10.7266 15.1073C11.4114 15.9638 12.3802 16.5708 13.484 16.7757C13.5738 16.7923 13.6629 16.8067 13.7541 16.818C13.9381 16.8407 14.1257 16.8528 14.3163 16.8528C16.1225 16.8528 17.6885 15.7899 18.4572 14.2395C18.5543 14.0452 18.6375 13.8426 18.7084 13.634C18.8704 13.1539 18.9602 12.6399 18.9646 12.1054C18.9653 12.0911 18.9653 12.0767 18.9653 12.0624C18.9653 11.3563 18.8171 10.6865 18.5492 10.0825H18.547ZM14.3389 15.7544H14.3156C13.1263 15.7544 12.0728 15.158 11.4216 14.2387C11.3172 14.0936 11.2237 13.9401 11.1412 13.7791C11.1171 13.7315 11.0938 13.6831 11.0719 13.634C10.8587 13.1698 10.7382 12.652 10.7317 12.1054V12.0624C10.7317 11.3344 10.9368 10.6555 11.2902 10.0825C11.3281 10.0221 11.3661 9.96234 11.407 9.90413C11.5296 9.72951 11.6669 9.56471 11.8173 9.41503C12.4174 8.8133 13.2219 8.42777 14.1141 8.37712C14.1798 8.37258 14.2469 8.37107 14.3148 8.37107C15.2858 8.37107 16.1663 8.76946 16.8109 9.41579C16.9606 9.56622 17.0978 9.73026 17.2205 9.90489C17.2614 9.9631 17.3008 10.0221 17.3373 10.0833C17.3592 10.1181 17.3796 10.1528 17.4008 10.1884C17.7155 10.7372 17.8965 11.3782 17.8965 12.0631V12.1062C17.89 12.6528 17.7688 13.1698 17.5556 13.6347C17.4578 13.8487 17.3409 14.0513 17.2066 14.2402C16.559 15.1527 15.5158 15.7476 14.3375 15.7559L14.3389 15.7544Z" fill="#D3D7E4"/>
<path opacity="0.5" d="M17.4029 10.1876L15.5062 13.6347L14.3395 15.7544H14.3162C12.9393 15.7544 11.7434 14.9539 11.1426 13.7791L11.2229 13.634L13.2758 9.90415L14.1169 8.37638C14.1833 8.37261 14.2497 8.37109 14.3169 8.37109C15.2879 8.37109 16.1691 8.76872 16.8137 9.41581C16.9634 9.56624 17.1006 9.72953 17.2233 9.90491C17.2875 9.99638 17.3474 10.0901 17.4043 10.1876H17.4029Z" fill="#D3D7E4"/>
<path d="M31.9077 10.0836C31.8493 9.92186 31.7814 9.76387 31.7062 9.61116C31.6237 9.44259 31.5317 9.2793 31.4302 9.12282C30.598 7.83091 29.1736 6.98047 27.5573 6.98047C27.4237 6.98047 27.2915 6.98652 27.1601 6.99786C25.8307 7.11427 24.6604 7.80672 23.8858 8.83254C23.8149 8.92628 23.747 9.02304 23.6835 9.12282C23.5813 9.2793 23.4893 9.44259 23.4076 9.61116C23.3324 9.76462 23.2645 9.92186 23.2061 10.0836C23.0126 10.6083 22.9082 11.1767 22.9082 11.7694C22.9082 11.7838 22.9082 11.7974 22.9089 11.8117C22.914 12.3462 23.0031 12.861 23.1652 13.341C23.271 13.657 23.409 13.9579 23.5755 14.2398C24.3873 15.6285 25.8664 16.5591 27.5573 16.5591C27.7478 16.5591 27.9347 16.547 28.1194 16.5243C28.2107 16.513 28.2997 16.4994 28.3895 16.4827C29.4927 16.2779 30.4607 15.6693 31.1463 14.8128C31.209 14.7342 31.2704 14.6533 31.328 14.5702C31.4032 14.4628 31.4741 14.3525 31.5405 14.2391C31.7062 13.9571 31.8435 13.6562 31.9486 13.3403C32.1107 12.8617 32.2005 12.3469 32.2056 11.811C32.2063 11.7966 32.2063 11.783 32.2063 11.7686C32.2063 11.1752 32.1019 10.6075 31.9084 10.0829L31.9077 10.0836ZM27.5573 15.4614H27.5339C26.487 15.4546 25.5467 14.9852 24.8954 14.2406C24.6618 13.9737 24.4654 13.6706 24.315 13.3418C24.1026 12.8761 23.9807 12.359 23.9748 11.8125V11.7701C23.9748 11.1624 24.1172 10.5886 24.3698 10.0844C24.4019 10.0194 24.4355 9.95739 24.4713 9.89464C24.5275 9.79713 24.5874 9.70339 24.6516 9.61116C24.7735 9.43654 24.9115 9.2725 25.0604 9.12282C25.7058 8.47573 26.587 8.07735 27.558 8.07735C27.6252 8.07735 27.6916 8.07962 27.758 8.08339C28.6502 8.1348 29.454 8.51958 30.0555 9.12282C30.2059 9.27174 30.3432 9.43654 30.4651 9.61116C30.5702 9.76084 30.6644 9.91883 30.7462 10.0836C30.9988 10.5886 31.1411 11.1624 31.1411 11.7694V11.8117C31.1353 12.3583 31.0141 12.8769 30.8017 13.341C30.7798 13.3901 30.7564 13.4378 30.7316 13.4854C30.5921 13.759 30.4198 14.013 30.2198 14.2398C29.5642 14.9897 28.6151 15.4607 27.5587 15.4607L27.5573 15.4614Z" fill="#D3D7E4"/>
<path opacity="0.5" d="M30.7681 9.93851L28.8195 13.4695L27.6207 15.6406H27.5967C26.1818 15.6406 24.9538 14.8204 24.3369 13.6177L24.4194 13.4688L26.5278 9.64823L27.3915 8.08342C27.4594 8.07964 27.528 8.07812 27.5967 8.07812C28.5939 8.07812 29.4985 8.48558 30.1614 9.14779C30.3147 9.302 30.4563 9.46907 30.5819 9.64823C30.6483 9.74196 30.7096 9.83797 30.7673 9.93775L30.7681 9.93851Z" fill="#D3D7E4"/>
<path d="M10.3613 10.9219H4.61719V12.9146H10.3613V10.9219Z" fill="#D3D7E4"/>
<path d="M23.2054 10.9219H18.3008V12.9146H23.2054V10.9219Z" fill="#D3D7E4"/>
<path d="M37.294 10.9219H31.5498V12.9146H37.294V10.9219Z" fill="#D3D7E4"/>
<path d="M38.2012 21.197C38.1508 21.1638 38.0997 21.1298 38.0486 21.0942C38.0238 21.0769 37.9983 21.0587 37.9727 21.0398C37.9223 21.0028 37.8705 20.9642 37.8201 20.9242C37.7435 20.8652 37.6668 20.8017 37.5902 20.7352C37.5135 20.6694 37.4376 20.5999 37.3616 20.5273C37.3105 20.4789 37.2609 20.4298 37.2105 20.3791C37.0609 20.2257 36.9221 20.0692 36.7966 19.9112C36.5849 19.6481 36.4067 19.3828 36.2658 19.125H36.2651C36.2242 19.1658 36.1789 19.2165 36.1264 19.2701C36.0103 19.3926 35.873 19.5393 35.7175 19.6965C34.6239 20.8425 32.7476 22.7709 32.5177 22.8579C30.6487 23.579 27.1619 23.5412 26.0296 24.9511C25.793 25.2467 25.6412 25.5846 25.5477 25.9247C25.2929 26.8409 25.4616 27.7708 25.5361 27.9C25.6843 28.1533 27.0466 29.5117 27.7087 30.1837C27.8964 30.3742 28.0278 30.5096 28.0592 30.5489C28.2395 30.6978 30.345 32.9407 30.6472 33.1251C30.8173 33.2272 32.406 33.454 33.3908 32.4788C33.8354 32.0366 34.1041 31.298 34.2888 30.437C34.5706 29.1292 34.6626 27.5402 34.8969 26.2838C34.9502 25.9966 35.0108 25.7267 35.0831 25.4818C35.1547 25.2338 36.8842 23.1557 37.9136 21.9424C38.0545 21.7708 38.1852 21.6181 38.2976 21.4896C38.3443 21.4306 38.3896 21.3823 38.4268 21.3346C38.3531 21.2915 38.2779 21.2469 38.202 21.1978L38.2012 21.197ZM32.0293 27.1373C32.2935 27.547 32.8053 28.0096 33.8997 28.2667C33.8084 29.0181 33.7069 29.7748 33.5237 30.4052C33.3806 30.9019 33.1871 31.3199 32.909 31.5966C32.1015 32.3956 30.8027 32.2097 30.6618 32.1273C30.4596 32.0041 29.2499 30.7318 28.752 30.2223C28.6469 30.1142 28.5731 30.0401 28.5476 30.0182C28.4271 29.8715 26.637 28.1147 26.4793 27.8524C26.4121 27.733 26.2479 26.7903 26.5808 25.9633C26.6545 25.7788 26.7538 25.6004 26.8838 25.4387C27.3766 24.8263 28.4045 24.5474 29.4959 24.3342C29.558 24.3236 29.623 24.3108 29.6872 24.2995C29.6872 24.2995 29.6894 24.301 29.693 24.2979C30.2859 24.4537 30.9517 24.7508 31.3605 25.3548C31.546 25.6284 31.6226 25.8832 31.6825 26.1296C31.6847 26.1394 31.6869 26.1485 31.689 26.1583C31.7606 26.4804 31.8059 26.7911 32.0278 27.1365L32.0293 27.1373Z" fill="#D3D7E4"/>
<path d="M39.3507 20.8973C39.2872 20.9676 39.2295 21.016 39.1769 21.0523C39.0097 21.1627 38.8813 21.1332 38.7936 21.0999C38.3695 20.8747 37.9066 20.5307 37.4715 20.0862C37.0364 19.641 36.6947 19.1624 36.4662 18.7202C36.4319 18.6287 36.4012 18.4957 36.4954 18.3105C36.5275 18.253 36.5699 18.1895 36.6334 18.1192C36.7392 18.0021 36.8312 17.9212 36.9094 17.872C37.1736 17.708 37.3153 17.8418 37.4043 17.894L39.5296 20.0666C39.5821 20.1595 39.7157 20.3077 39.5704 20.5927C39.5274 20.6781 39.4558 20.7794 39.35 20.8966L39.3507 20.8973Z" fill="#D3D7E4"/>
<path d="M38.6478 21.0759C38.6215 21.1054 38.542 21.1991 38.4259 21.3337C38.0302 21.1092 37.6104 20.7879 37.2111 20.3789C36.8117 19.97 36.4919 19.5368 36.2656 19.1248C36.3868 18.9956 36.4715 18.9071 36.4978 18.8776C36.527 18.8451 36.4971 18.7975 36.4671 18.7227C36.6956 19.1649 37.0373 19.6434 37.4724 20.0887C37.9075 20.5331 38.3704 20.8771 38.7946 21.1024C38.723 21.0744 38.677 21.0442 38.6478 21.0767V21.0759Z" fill="#617196"/>
<path opacity="0.5" d="M30.7281 26.1217L26.582 25.9622C26.6558 25.7778 26.7551 25.5994 26.885 25.4376C27.3778 24.8253 28.4057 24.5463 29.4972 24.3332C29.5592 24.3226 29.6242 24.3097 29.6885 24.2984C29.6885 24.2984 29.6906 24.2999 29.6943 24.2969C30.2871 24.4526 30.9529 24.7497 31.3618 25.3537C31.5472 25.6273 31.6239 25.8821 31.6837 26.1285C31.6859 26.1384 31.6881 26.1474 31.6903 26.1573L30.9303 26.1285C30.8697 26.1444 30.8011 26.1406 30.7273 26.121L30.7281 26.1217Z" fill="#D3D7E4"/>
<path opacity="0.7" d="M31.1936 29.4832C31.2885 29.3781 31.4652 29.3947 31.5871 29.5202C31.7097 29.6457 31.7331 29.8332 31.6389 29.9383C31.5447 30.0433 31.3681 30.0267 31.2454 29.9012C31.1228 29.7757 31.0994 29.5882 31.1936 29.4832Z" fill="#77C14D"/>
<path opacity="0.7" d="M32.0086 29.3972C32.1028 29.2922 32.2795 29.3088 32.4021 29.4343C32.5248 29.5598 32.5481 29.7472 32.4532 29.8516C32.359 29.9566 32.1824 29.94 32.0597 29.8145C31.9371 29.689 31.9137 29.5016 32.0086 29.3972Z" fill="#77C14D"/>
<path opacity="0.5" d="M33.5237 30.4034C33.3806 30.9001 33.1871 31.3181 32.9089 31.5948C32.1015 32.3938 30.8027 32.2079 30.6618 32.1255C30.4596 32.0023 29.2499 30.73 28.752 30.2205L30.6983 30.2946C30.9378 30.0565 31.3269 30.0701 31.5861 30.3294L33.5237 30.4034Z" fill="#D3D7E4"/>
<path d="M31.0589 26.0564C31.0253 26.0942 30.9815 26.1184 30.9311 26.129C30.8705 26.1448 30.8019 26.1411 30.7281 26.1214C30.5945 26.0859 30.4456 25.9974 30.3149 25.8629C30.0514 25.593 29.9565 25.2422 30.1032 25.0782C30.25 24.9157 30.5836 25.0019 30.8471 25.271C31.1114 25.5409 31.2056 25.8916 31.0589 26.0557V26.0564Z" fill="#D3D7E4"/>
<path d="M29.7115 25.6428C29.816 25.5396 29.7877 25.3333 29.6483 25.1819C29.5089 25.0305 29.3112 24.9914 29.2068 25.0945C29.1023 25.1976 29.1306 25.404 29.27 25.5554C29.4093 25.7068 29.607 25.7459 29.7115 25.6428Z" fill="#D3D7E4"/>
<path d="M31.6439 31.3113C31.4052 31.5774 30.9934 31.5706 30.7255 31.297C30.4583 31.0233 30.4349 30.5856 30.6736 30.3203C30.6817 30.3112 30.6897 30.3029 30.6985 30.2946C30.9379 30.0565 31.3271 30.0701 31.5862 30.3294C31.5884 30.3309 31.5899 30.3331 31.5921 30.3346C31.8593 30.6091 31.8826 31.046 31.6439 31.3113Z" fill="#D3D7E4"/>
<path d="M32.4532 29.8516C32.359 29.9566 32.1824 29.94 32.0597 29.8145C31.9371 29.689 31.9137 29.5016 32.0086 29.3972C32.1028 29.2922 32.2795 29.3088 32.4021 29.4343C32.5248 29.5598 32.5481 29.7472 32.4532 29.8516Z" fill="#D3D7E4"/>
<path d="M31.6389 29.9383C31.5447 30.0433 31.3681 30.0267 31.2454 29.9012C31.1228 29.7757 31.0994 29.5882 31.1936 29.4832C31.2885 29.3781 31.4652 29.3947 31.5871 29.5202C31.7097 29.6457 31.7331 29.8332 31.6389 29.9383Z" fill="#D3D7E4"/>
<path opacity="0.4" d="M33.9003 28.2643C32.8059 28.0073 32.2941 27.5446 32.0298 27.1349C31.8072 26.7887 31.7619 26.478 31.6911 26.1567L30.9311 26.128C30.8705 26.1439 30.8019 26.1401 30.7281 26.1204L26.5821 25.9609C26.2484 26.7879 26.4127 27.7306 26.4806 27.8501C26.6376 28.1124 28.4284 29.8692 28.5489 30.0158C28.5744 30.0378 28.6482 30.1118 28.7533 30.2199L30.6996 30.294C30.9391 30.0559 31.3282 30.0695 31.5874 30.3288L33.525 30.4029C33.7082 29.7724 33.8097 29.0157 33.901 28.2643H33.9003ZM31.6392 29.9395C31.5451 30.0446 31.3684 30.0279 31.2457 29.9024C31.1231 29.777 31.0997 29.5895 31.1939 29.4844C31.2888 29.3793 31.4655 29.396 31.5874 29.5214C31.7101 29.6469 31.7334 29.8344 31.6392 29.9395ZM32.454 29.8526C32.3598 29.9576 32.1831 29.941 32.0605 29.8155C31.9378 29.69 31.9145 29.5025 32.0094 29.3982C32.1036 29.2932 32.2802 29.3098 32.4029 29.4353C32.5255 29.5608 32.5489 29.7482 32.454 29.8526Z" fill="#617196"/>
<path d="M0.00983461 19.2812V19.2925L0 19.2869L0.00983461 19.2812Z" fill="#EC008C"/>
</svg>
