<svg width="41" height="41" viewBox="0 0 41 41" fill="none" xmlns="http://www.w3.org/2000/svg">
<path d="M20.1346 37.2335H20.1025V37.1992L20.1346 37.2335Z" fill="#FABC1B"/>
<path d="M20.1027 37.1875V37.1984L20.0957 37.1902L20.1027 37.1875Z" fill="#FABC1B"/>
<path d="M4.24121 21.5859C4.24277 21.489 4.2459 21.3862 4.25137 21.281C4.30063 20.2878 4.39132 18.4711 5.37645 17.8454C5.48356 17.7778 5.57582 17.7394 5.61882 17.7227H7.17625V21.5859H4.24199H4.24121Z" fill="#D3D7E4"/>
<path d="M4.24121 21.5039C4.24277 21.6008 4.2459 21.7035 4.25137 21.8088C4.30063 22.8019 4.39132 24.6187 5.37645 25.2443C5.48356 25.312 5.57582 25.3504 5.61882 25.3671H7.17625V21.5039H4.24199H4.24121Z" fill="#D3D7E4"/>
<path d="M41.0005 21.6523C40.9989 21.5554 40.9958 21.4526 40.9903 21.3474C40.941 20.3542 40.8504 18.5375 39.8652 17.9119C39.7581 17.8442 39.6659 17.8058 39.6229 17.7891H38.0654V21.6523H40.9997H41.0005Z" fill="#D3D7E4"/>
<path d="M41.0005 21.5703C40.9989 21.6672 40.9958 21.7699 40.9903 21.8752C40.941 22.8684 40.8504 24.6851 39.8652 25.3107C39.7581 25.3784 39.6659 25.4168 39.6229 25.4335H38.0654V21.5703H40.9997H41.0005Z" fill="#D3D7E4"/>
<path d="M37.9114 25.7345C36.4791 28.6046 34.1734 29.8508 32.77 30.6168C30.8146 31.6826 29.2072 31.9499 26.943 32.3249C23.0204 32.9765 19.9408 32.6398 18.6015 32.4477C16.6609 32.1696 14.6571 31.8639 12.3178 30.6168C11.2787 30.063 9.93945 29.3321 8.66113 27.8094C8.13652 27.1837 6.76126 25.504 6.37581 23.0482C6.29606 22.5345 6.28121 22.1319 6.26088 21.584C6.2429 21.0552 6.17566 19.1641 6.60411 17.4334C7.17251 15.1397 8.48366 13.642 9.11851 12.917C10.5196 11.3166 12.2514 10.2725 13.9933 9.58168C14.2583 9.47643 14.5234 9.37954 14.7876 9.29016C15.3818 9.08886 15.9698 8.92598 16.5421 8.7915C18.2606 8.38805 19.8235 8.25023 20.8868 8.15584C22.266 8.03472 24.6701 7.84595 27.4535 8.39223C28.2056 8.53924 28.9859 8.74054 29.781 9.01118C29.9312 9.06213 30.0821 9.11475 30.2329 9.17155C30.9945 9.45472 31.7677 9.80303 32.5409 10.2307C35.6144 11.9313 36.9208 13.9035 37.2257 14.3813C38.5103 16.3976 38.8442 18.3347 38.9403 19.0196C39.0584 19.8658 39.418 22.7141 37.9114 25.7337V25.7345Z" fill="#D3D7E4"/>
<path d="M36.3116 20.1209C36.3374 22.9667 34.8534 24.9388 34.2545 25.7357C33.6768 26.5025 32.8206 27.6418 31.2835 28.2984C30.0193 28.8396 28.834 28.8229 28.3125 28.787C28.2776 28.7842 27.4778 28.6214 25.9131 28.2984C24.8959 28.0887 24.2993 27.9676 23.4737 27.9258C22.9913 27.9016 22.5902 27.9125 22.3142 27.9258C22.0382 27.9125 21.6372 27.9016 21.1555 27.9258C20.3299 27.9676 19.7326 28.0879 18.7162 28.2984C17.1536 28.6208 16.3537 28.7837 16.3167 28.787C15.7952 28.8229 14.61 28.8396 13.3457 28.2984C11.8086 27.6418 10.9525 26.5025 10.3747 25.7357C9.77583 24.9388 8.29268 22.9659 8.3177 20.1209C8.3216 19.7759 8.35444 18.5806 8.88922 17.1907C9.71876 15.0382 11.1878 13.8846 11.9744 13.2849C12.7163 12.7186 13.3223 12.2558 14.2597 12.0637C15.28 11.8557 16.1705 12.0754 17.1158 12.3084C18.2111 12.5782 18.3917 12.8012 19.4011 13.0401C20.4097 13.279 21.2603 13.3008 21.8006 13.2849H22.8295C23.3697 13.3008 24.2204 13.279 25.2282 13.0401C26.2375 12.8012 26.4189 12.5782 27.5143 12.3084C28.4595 12.0754 29.35 11.8557 30.3703 12.0637C31.307 12.2558 31.9129 12.7186 32.6557 13.2849C33.4414 13.8846 34.9113 15.0382 35.74 17.1907C36.2756 18.5806 36.3084 19.7759 36.3123 20.1209H36.3116Z" fill="#617196"/>
<path d="M12.5205 19.9893H11.1953V20.402C11.5143 20.3736 11.9732 20.3535 12.5205 20.402C13.7652 20.5122 14.6651 20.9073 15.7527 21.396C16.5181 21.7393 17.0967 22.004 17.7878 22.547C18.2671 22.9229 18.6244 23.2946 18.8652 23.5702C19.0583 22.4025 18.9653 21.4569 18.8652 20.8714C18.7417 20.148 18.6056 19.3562 18.0271 18.5827C17.8199 18.3054 17.3805 17.734 16.5908 17.4317C16.3453 17.3381 15.508 17.0566 14.5557 17.4317C13.6378 17.7934 13.182 18.5393 12.9998 18.8383C12.8184 19.1348 12.7082 19.4088 12.6409 19.6059L12.5213 19.9893H12.5205Z" fill="#D3D7E4"/>
<path d="M32.8527 19.8604C33.2945 19.8604 33.7362 19.8604 34.178 19.8604V20.2731C33.859 20.2447 33.4 20.2246 32.8527 20.2731C31.6081 20.3833 30.7082 20.7784 29.6206 21.267C28.8552 21.6104 28.2766 21.8751 27.5855 22.4181C27.1062 22.794 26.7489 23.1657 26.5081 23.4413C26.315 22.2736 26.408 21.328 26.5081 20.7425C26.6316 20.0191 26.7677 19.2273 27.3462 18.4538C27.5534 18.1765 27.9928 17.6051 28.7825 17.3028C29.028 17.2092 29.8653 16.9277 30.8176 17.3028C31.7355 17.6644 32.1913 18.4104 32.3735 18.7094C32.5549 19.0059 32.6651 19.2799 32.7323 19.477L32.852 19.8604H32.8527Z" fill="#D3D7E4"/>
<path d="M20.5427 22.42C20.4606 22.1126 20.427 21.8461 20.4121 21.6523C20.57 21.8787 20.9922 22.4158 21.7287 22.6756C22.473 22.9387 23.1024 22.7641 23.4042 22.6756C24.1368 22.4609 24.6145 22.0207 24.8405 21.7801C24.8405 21.9347 24.8264 22.161 24.7552 22.4191C24.5613 23.125 23.9984 23.8717 23.165 24.0814C22.5559 24.2342 22.0555 24.0388 21.8484 23.9536C21.6459 23.8709 21.0806 23.6395 20.771 23.0581C20.6545 22.8385 20.5911 22.6021 20.5419 22.4191L20.5427 22.42Z" fill="#D3D7E4"/>
<path d="M14.9196 7.35945C14.8641 3.36928 18.3237 0.455788 22.276 0.688834C28.146 1.03464 29.7621 7.13977 29.5823 7.17486C29.3751 7.21579 21.0492 5.8008 14.9196 7.35945Z" fill="#D3D7E4"/>
<path d="M27.0773 3.43619C27.0445 3.43285 26.774 3.18644 27.6395 3.27832C28.5745 3.37772 28.7833 5.27216 28.5558 5.2471C28.4096 5.23123 28.2493 4.21719 27.4737 3.79453C27.279 3.68845 27.419 3.47378 27.0773 3.43619Z" fill="#D3D7E4"/>
<path d="M15.8992 4.03753C15.8546 4.0701 16.6912 1.34038 18.2064 1.39133C20.0687 1.45481 19.5754 3.59232 18.9866 3.54805C18.7826 3.53301 18.4206 2.22829 17.7248 2.44296C16.9077 2.69522 16.226 3.79696 15.8992 4.03753Z" fill="#D3D7E4"/>
<path d="M17.4804 2.3011C17.4359 2.33368 18.1731 0.656418 19.6883 0.708206C21.5507 0.771688 21.6398 3.19486 21.0511 3.15059C20.847 3.13556 19.8392 1.61366 19.0973 1.60447C18.3553 1.59528 17.808 2.06138 17.4812 2.3011H17.4804Z" fill="#D3D7E4"/>
<path d="M19.6712 1.08823C19.6266 1.12081 19.9167 0.200319 21.4319 0.252107C23.2943 0.315589 23.3193 3.51892 22.8095 3.23409C22.1434 2.86155 21.7431 1.19097 21.0043 1.10577C20.3936 1.03561 19.9988 0.848503 19.672 1.08907L19.6712 1.08823Z" fill="#D3D7E4"/>
<path d="M21.3452 0.884693C21.3007 0.91727 21.3358 -0.145219 22.8456 0.0168274C24.4781 0.191403 24.8197 3.22267 24.2232 2.99881C23.6266 2.77495 23.1036 1.15032 22.4179 0.870493C22.07 0.728494 21.6728 0.644965 21.3452 0.884693Z" fill="#D3D7E4"/>
<path d="M23.2057 1.08671C23.1479 1.08002 22.9415 0.557133 24.452 0.718344C26.0845 0.89292 26.516 3.49151 26.1189 3.44723C25.864 3.41967 25.5473 2.02641 24.1822 1.41665C23.8398 1.26379 23.8023 1.15186 23.2065 1.08587L23.2057 1.08671Z" fill="#D3D7E4"/>
<path d="M24.902 1.57543C24.8441 1.56874 24.3641 1.22126 25.8746 1.38247C27.5071 1.55705 27.9386 4.15563 27.5415 4.11136C27.2866 4.0838 26.9699 2.69054 25.6048 2.08078C25.2624 1.92792 25.4985 1.64058 24.902 1.57459V1.57543Z" fill="#D3D7E4"/>
<path d="M30.2335 9.1713C30.0827 9.11534 29.9318 9.06188 29.7816 9.01093C28.9865 8.73946 28.2062 8.53899 27.4541 8.39198C26.8044 7.84069 25.5159 7.27186 22.9218 7.15575C19.2041 6.9912 17.3574 8.03782 16.5435 8.79125C15.9712 8.92573 15.3825 9.08861 14.789 9.28992C14.5256 9.37929 14.2597 9.47618 13.9947 9.58143C13.972 8.64841 14.6678 7.6302 14.9219 7.35873C15.2104 7.04967 16.599 6.67964 18.4957 6.40065C19.1431 6.30626 19.8515 6.22273 20.5942 6.15591C20.6443 6.1509 20.6943 6.14589 20.7451 6.14171C23.5887 5.89613 26.9232 5.89948 29.4486 6.4942C29.9607 6.61532 30.4392 6.76066 30.8739 6.93273C31.712 7.26434 31.0514 8.32599 30.2343 9.17214L30.2335 9.1713Z" fill="#D3D7E4"/>
<path d="M29.7815 9.01119C28.9863 8.73972 28.2061 8.53925 27.4539 8.39224C24.6706 7.84596 22.2664 8.03474 20.8872 8.15586C19.8239 8.25024 18.261 8.38807 16.5425 8.79151C15.9702 8.92599 15.3815 9.08887 14.7881 9.29018C14.8201 8.82826 14.9945 8.32876 15.3674 8.02221C16.0164 7.48846 21.5291 6.52454 26.1068 6.80937C26.5736 6.8386 27.0302 6.88037 27.4704 6.93633C27.4719 6.93717 27.4743 6.93717 27.4758 6.93717C28.4563 7.0633 29.3585 7.26377 30.1145 7.55612C30.5242 7.71315 30.2209 8.38807 29.7815 9.01119Z" fill="#617196"/>
<path d="M12.7081 37.8308C13.9244 36.6337 13.6842 34.2409 12.1714 32.4864C10.6586 30.7319 8.44616 30.28 7.22979 31.477C6.01341 32.6741 6.2537 35.0669 7.76649 36.8214C9.27927 38.5759 11.4917 39.0278 12.7081 37.8308Z" fill="#D3D7E4"/>
<path d="M4.70995 27.0338C6.11726 27.3295 7.16259 28.671 7.19073 30.2021C7.19777 30.5738 7.14851 30.9288 7.04844 31.2629C7.11411 31.2854 7.17901 31.3188 7.23843 31.3614L14.3524 36.577C14.6925 36.8251 14.7637 37.3254 14.5103 37.6712L13.2156 39.4262C12.9615 39.7745 12.4822 39.8154 12.1773 39.5172L5.80844 33.2951C5.75214 33.2417 5.70836 33.1807 5.67239 33.1155C4.92964 33.5858 3.99143 33.7328 3.0329 33.3828C1.57476 32.8499 0.750698 31.1969 1.06734 29.5873C1.06969 29.5748 1.08376 29.5689 1.09315 29.5764L2.95393 31.0591C3.23461 31.2821 3.63101 31.2211 3.84054 30.9212L4.59189 29.8462C4.80142 29.5472 4.74357 29.1229 4.46289 28.8998L2.59506 27.4122C2.58568 27.4047 2.58646 27.388 2.59663 27.3821C3.20725 27.0171 3.94687 26.8734 4.70917 27.0338H4.70995Z" fill="#617196" stroke="#D3D7E4" stroke-miterlimit="10"/>
<path d="M8.56096 31.3319C7.93002 31.484 7.33894 31.1682 7.17397 31.0772C6.81511 30.8792 6.28033 30.6169 6.15367 30.1884C6.01997 29.7332 6.2256 29.4175 6.55163 29.3122C6.76194 29.2445 7.00979 29.2663 7.52346 29.3155C8.0082 29.3623 8.03478 29.2487 8.3225 29.3389C8.4257 29.3715 8.91123 29.5402 9.15673 30.0356C9.18565 30.0932 9.37877 30.4975 9.24507 30.86C9.12076 31.1958 8.7963 31.2743 8.56096 31.3311V31.3319Z" fill="#D3D7E4"/>
<path d="M5.1701 34.9491C5.23186 34.2608 5.69706 33.7596 5.82997 33.6209C6.11769 33.3186 6.51878 32.8575 6.93941 32.8633C7.38584 32.87 7.60241 33.1774 7.59381 33.5416C7.58834 33.7755 7.49139 34.021 7.28655 34.5264C7.09343 35.0033 7.18569 35.0668 7.01603 35.3299C6.95504 35.4252 6.65325 35.8645 6.13567 35.9589C6.07547 35.9698 5.65562 36.0399 5.37494 35.7902C5.11537 35.5588 5.14743 35.2055 5.1701 34.9491Z" fill="#D3D7E4"/>
<path d="M6.74236 36.3553C6.80413 35.667 7.26933 35.1659 7.40224 35.0272C7.68996 34.7248 8.09104 34.2637 8.51167 34.2696C8.95811 34.2763 9.17468 34.5837 9.16608 34.9478C9.1606 35.1817 9.06365 35.4273 8.85881 35.9326C8.6657 36.4096 8.75796 36.4731 8.5883 36.7362C8.52731 36.8314 8.22552 37.2708 7.70794 37.3652C7.64774 37.376 7.22789 37.4462 6.94721 37.1964C6.68764 36.9651 6.71969 36.6117 6.74236 36.3553Z" fill="#D3D7E4"/>
<path d="M8.4035 37.5506C8.46526 36.8623 8.93046 36.3612 9.06337 36.2225C9.35109 35.9201 9.75218 35.4591 10.1728 35.4649C10.6192 35.4716 10.8358 35.779 10.8272 36.1432C10.8217 36.377 10.7248 36.6226 10.5199 37.128C10.3268 37.6049 10.4191 37.6684 10.2494 37.9315C10.1884 38.0267 9.88665 38.4661 9.36907 38.5605C9.30887 38.5713 8.88902 38.6415 8.60834 38.3918C8.34877 38.1604 8.38082 37.8071 8.4035 37.5506Z" fill="#D3D7E4"/>
</svg>
