<svg width="40" height="40" viewBox="0 0 40 40" fill="none" xmlns="http://www.w3.org/2000/svg">
<path d="M39.7998 15.4923C39.7983 15.3895 39.7945 15.2805 39.7883 15.1677C39.7323 14.1114 39.6302 12.1795 38.5184 11.5134C38.3979 11.4415 38.2927 11.4006 38.2451 11.3828H36.4868V15.4915H39.7998V15.4923Z" fill="#D3D7E4"/>
<path d="M39.7998 15.4023C39.7983 15.5051 39.7945 15.6141 39.7883 15.7269C39.7323 16.7832 39.6302 18.7151 38.5184 19.3812C38.3979 19.4531 38.2927 19.494 38.2451 19.5118H36.4868V15.4031H39.7998V15.4023Z" fill="#D3D7E4"/>
<path d="M0.299805 15.422C0.30134 15.3192 0.30518 15.2102 0.311322 15.0974C0.367371 14.0411 0.469487 12.1092 1.58125 11.4431C1.7018 11.3712 1.80698 11.3303 1.85459 11.3125H3.61283V15.4212H0.299805V15.422Z" fill="#D3D7E4"/>
<path d="M0.299805 15.332C0.30134 15.4348 0.30518 15.5438 0.311322 15.6566C0.367371 16.7129 0.469487 18.6448 1.58125 19.3109C1.7018 19.3828 1.80698 19.4237 1.85459 19.4415H3.61283V15.3328H0.299805V15.332Z" fill="#D3D7E4"/>
<path d="M1.58032 15.4215C1.55882 14.859 1.48357 12.8483 1.96728 11.0076C2.60839 8.56806 4.0887 6.97465 4.80505 6.20423C8.78913 1.91626 15.1449 1.38616 18.0917 1.1412C20.5494 0.936419 25.8933 0.557001 31.2494 3.34816C34.7198 5.15638 36.194 7.25362 36.5379 7.76208C37.9875 9.90722 38.3645 11.9674 38.4728 12.6953C38.6064 13.5948 39.0133 16.6247 37.3119 19.8362C35.6949 22.8886 33.0921 24.2146 31.5074 25.0291C29.3 26.1627 27.4849 26.4471 24.9289 26.8466C20.5018 27.539 17.0245 27.1804 15.5119 26.9764C13.3214 26.6804 11.0587 26.3551 8.41675 25.0291C7.24433 24.4403 5.73178 23.6629 4.28909 22.0432C3.69636 21.3779 2.14311 19.5913 1.70931 16.9802C1.61871 16.4331 1.60258 16.005 1.58032 15.4223V15.4215Z" fill="#D3D7E4"/>
<path d="M35.5073 13.8652C35.5357 16.8913 33.8611 18.9901 33.1855 19.837C32.5336 20.6522 31.5669 21.8639 29.8317 22.5625C28.4044 23.1382 27.0661 23.1204 26.478 23.0825C26.4381 23.0799 25.5352 22.9066 23.7692 22.5625C22.6214 22.3391 21.9473 22.2109 21.0152 22.1668C20.4708 22.1413 20.0178 22.1521 19.7068 22.1668C19.3943 22.1521 18.9421 22.1413 18.3977 22.1668C17.4649 22.2116 16.7915 22.3391 15.6437 22.5625C13.8793 22.9056 12.9764 23.0789 12.9349 23.0825C12.3468 23.1204 11.0085 23.1382 9.58118 22.5625C7.84597 21.8639 6.87931 20.6522 6.22746 19.837C5.5518 18.9893 3.87647 16.8913 3.90565 13.8652C3.90949 13.4982 3.94711 12.227 4.5506 10.7487C5.4873 8.45908 7.14574 7.23273 8.03407 6.59445C8.87174 5.9917 9.55584 5.50024 10.6139 5.29546C11.7663 5.07446 12.7714 5.30782 13.8386 5.55588C15.0747 5.84334 15.2797 6.0798 16.4184 6.33403C17.557 6.58826 18.5175 6.61067 19.1272 6.59445H20.2888C20.8992 6.61067 21.859 6.58826 22.9976 6.33403C24.1362 6.0798 24.3412 5.84334 25.5774 5.55588C26.6446 5.30782 27.6497 5.07446 28.8021 5.29546C29.8601 5.50024 30.5442 5.99248 31.3819 6.59445C32.2702 7.23196 33.9287 8.45908 34.8654 10.7487C35.4689 12.227 35.5065 13.4982 35.5103 13.8652H35.5073Z" fill="#617196"/>
<path d="M19.1483 10.3109C19.1076 10.2205 19.0646 10.1293 19.0193 10.0405C18.8926 9.78469 18.7475 9.53741 18.5901 9.29863C18.4911 9.14872 18.3851 9.0019 18.2745 8.85894C17.0645 7.30263 15.2387 6.25324 13.1656 6.07705C12.9606 6.05851 12.7549 6.05078 12.546 6.05078C10.0231 6.05078 7.79954 7.34049 6.5012 9.29863C6.34457 9.53741 6.19945 9.78469 6.072 10.0405C6.0267 10.1301 5.98294 10.2205 5.94301 10.3109C5.5238 11.2266 5.29346 12.2428 5.29346 13.3138C5.29346 13.3362 5.29346 13.3571 5.29499 13.3795C5.3019 14.1909 5.44087 14.9714 5.69578 15.6977C5.80404 16.0146 5.93457 16.3213 6.08505 16.6158C6.2532 16.9465 6.44822 17.2633 6.66474 17.5631C6.75457 17.6891 6.84901 17.8127 6.94652 17.9325C8.01529 19.2315 9.5263 20.1526 11.2492 20.4633C11.389 20.488 11.5287 20.5104 11.6707 20.5274C11.9579 20.5614 12.2504 20.5799 12.5476 20.5799C15.3661 20.5799 17.8093 18.968 19.0086 16.6158C19.1598 16.3213 19.2903 16.0146 19.4001 15.6977C19.6535 14.9698 19.7932 14.1901 19.7994 13.3795C19.8009 13.3571 19.8009 13.3362 19.8009 13.3138C19.8009 12.2436 19.5698 11.2266 19.1514 10.3109H19.1483ZM12.5814 18.9147H12.5445C10.6887 18.9147 9.04413 18.0098 8.02911 16.6158C7.86633 16.3948 7.71969 16.1629 7.59223 15.918C7.55461 15.8461 7.51776 15.7719 7.48397 15.697C7.15152 14.993 6.96341 14.2079 6.95266 13.3787V13.313C6.95266 12.2088 7.27206 11.1787 7.8241 10.3102C7.88246 10.2182 7.94311 10.1278 8.00684 10.0397C8.19879 9.77464 8.413 9.52504 8.64795 9.29786C9.58466 8.38524 10.8408 7.80028 12.2312 7.723C12.3341 7.71682 12.4385 7.71373 12.5445 7.71373C14.0594 7.71373 15.4337 8.31802 16.4403 9.29786C16.6737 9.52659 16.8879 9.77464 17.0799 10.0397C17.1436 10.1278 17.205 10.2167 17.2626 10.3102C17.2964 10.3627 17.3294 10.4152 17.3616 10.4693C17.8523 11.3024 18.1356 12.2737 18.1356 13.313V13.3787C18.1248 14.2079 17.9359 14.9914 17.6035 15.697C17.4507 16.0215 17.268 16.3291 17.0591 16.615C16.0487 17.9997 14.4202 18.9015 12.5814 18.9139V18.9147Z" fill="#D3D7E4"/>
<path d="M6.58496 11.9531H1.58496V14.2327H6.58496V11.9531Z" fill="#D3D7E4"/>
<path d="M21.4804 12.8047H18.4561V15.0843H21.4804V12.8047Z" fill="#D3D7E4"/>
<path d="M39.0502 11.9531H33.1904V14.2327H39.0502V11.9531Z" fill="#D3D7E4"/>
<path d="M34.0062 10.0883C33.9655 9.99786 33.9225 9.90668 33.8772 9.81781C33.7505 9.56203 33.6054 9.31475 33.448 9.07597C33.349 8.92606 33.243 8.77924 33.1325 8.63628C31.9224 7.07997 30.0966 6.03058 28.0236 5.8544C27.8186 5.83585 27.6128 5.82812 27.4039 5.82812C24.881 5.82812 22.6574 7.11784 21.3591 9.07597C21.2025 9.31475 21.0574 9.56203 20.9299 9.81781C20.8846 9.90745 20.8408 9.99786 20.8009 10.0883C20.3817 11.004 20.1514 12.0201 20.1514 13.0912C20.1514 13.1136 20.1514 13.1344 20.1529 13.1568C20.1598 13.9682 20.2988 14.7487 20.5537 15.4751C20.6619 15.7919 20.7925 16.0987 20.943 16.3931C21.1111 16.7238 21.3061 17.0407 21.5226 17.3405C21.6125 17.4664 21.7069 17.5901 21.8044 17.7099C22.8732 19.0088 24.3842 19.93 26.1071 20.2406C26.2469 20.2653 26.3866 20.2877 26.5287 20.3047C26.8158 20.3387 27.1083 20.3573 27.4055 20.3573C30.224 20.3573 32.6672 18.7453 33.8665 16.3931C34.0177 16.0987 34.1482 15.7919 34.258 15.4751C34.5114 14.7472 34.6511 13.9675 34.6573 13.1568C34.6588 13.1344 34.6588 13.1136 34.6588 13.0912C34.6588 12.0209 34.4277 11.004 34.0093 10.0883H34.0062ZM27.4393 18.6912H27.4024C25.5467 18.6912 23.902 17.7864 22.887 16.3923C22.7242 16.1713 22.5776 15.9395 22.4501 15.6945C22.4125 15.6227 22.3757 15.5485 22.3419 15.4735C22.0094 14.7696 21.8213 13.9845 21.8106 13.1553V13.0896C21.8106 11.9854 22.13 10.9553 22.682 10.0867C22.7404 9.99477 22.801 9.90436 22.8647 9.81627C23.0567 9.55121 23.2709 9.30162 23.5059 9.07443C24.4426 8.16182 25.6987 7.57685 27.0891 7.49957C27.192 7.49339 27.2965 7.4903 27.4024 7.4903C28.9173 7.4903 30.2916 8.09459 31.2982 9.07443C31.5316 9.30316 31.7458 9.55121 31.9378 9.81627C32.0015 9.90436 32.0629 9.99322 32.1205 10.0867C32.1543 10.1393 32.1873 10.1918 32.2195 10.2459C32.7102 11.0789 32.9935 12.0503 32.9935 13.0896V13.1553C32.9827 13.9845 32.7939 14.768 32.4614 15.4735C32.3086 15.7981 32.1259 16.1056 31.917 16.3916C30.9066 17.7763 29.2781 18.6781 27.4393 18.6905V18.6912Z" fill="#D3D7E4"/>
<path d="M21.9787 18.4148C21.9787 18.7085 21.9419 19.1791 21.7238 19.6984C21.538 20.1412 21.3284 20.6403 20.7887 20.8969C20.3111 21.1233 19.7099 21.0955 19.2577 20.8111C18.797 20.5206 18.6419 20.0577 18.4922 19.6126C18.3263 19.1188 18.3118 18.6853 18.3217 18.4141C18.4262 18.5717 18.7164 18.9635 19.2569 19.1845C19.4097 19.2471 19.941 19.4426 20.5322 19.2703C20.728 19.2131 20.8892 19.118 21.2125 18.9279C21.5434 18.7332 21.8021 18.5477 21.978 18.4141L21.9787 18.4148Z" fill="#D3D7E4"/>
<path d="M8.53228 12.7419H7.03662V13.1808C7.39672 13.1507 7.91498 13.129 8.53228 13.1808C9.93811 13.2983 10.9539 13.7179 12.1808 14.2379C13.0446 14.6034 13.698 14.8847 14.4781 15.462C15.0186 15.8622 15.4225 16.2571 15.6943 16.55C15.9131 15.3082 15.8071 14.3028 15.6943 13.68C15.5545 12.9104 15.4017 12.0688 14.7483 11.2459C14.5142 10.9507 14.0189 10.3433 13.1268 10.0218C12.8496 9.92214 11.9044 9.62309 10.8295 10.0218C9.793 10.4059 9.27858 11.2003 9.07281 11.5179C8.86858 11.8331 8.74343 12.1245 8.66741 12.3339L8.53228 12.7419Z" fill="#D3D7E4"/>
<path d="M31.4871 12.6091C31.9854 12.6091 32.4845 12.6091 32.9828 12.6091V13.048C32.6227 13.0179 32.1044 12.9962 31.4871 13.048C30.0813 13.1655 29.0655 13.5851 27.8386 14.1051C26.9748 14.4706 26.3214 14.7519 25.5413 15.3291C25.0008 15.7294 24.597 16.1243 24.3252 16.4172C24.1063 15.1754 24.2123 14.17 24.3252 13.5472C24.4649 12.7775 24.6177 11.936 25.2711 11.113C25.5053 10.8179 26.0005 10.2105 26.8927 9.88902C27.1698 9.78933 28.115 9.49028 29.1899 9.88902C30.2264 10.2731 30.7408 11.0675 30.9466 11.3851C31.1508 11.7003 31.276 11.9917 31.352 12.2011L31.4871 12.6091Z" fill="#D3D7E4"/>
<path d="M35.3378 34.2446C35.2841 34.3528 35.1828 34.4092 35.1244 34.4339C32.3849 33.5198 30.3172 33.2802 27.4403 33.7756C22.5879 34.6086 20.6607 36.4771 20.2277 36.4771C20.2215 36.4771 20.0495 36.4956 20.0434 36.4949L19.9244 36.4933C19.3516 36.331 17.1243 34.5452 12.4975 33.7493C9.62061 33.2555 7.55294 33.4943 4.81345 34.4092C4.75433 34.3837 4.65375 34.3281 4.59924 34.2199C4.59924 34.2199 4.51094 33.8691 4.73437 33.7879C4.92248 33.7207 7.79326 32.3645 12.886 33.1844C15.7161 33.6411 19.539 35.379 19.982 35.8465C20.5302 35.345 24.2701 33.6573 27.0526 33.2091C31.2939 32.526 33.995 33.3536 34.8871 33.6882C35.0653 33.7555 35.172 33.8018 35.2035 33.8142C35.4284 33.8938 35.3386 34.2446 35.3386 34.2446H35.3378Z" fill="#D3D7E4" stroke="#D3D7E4" stroke-miterlimit="10"/>
<path d="M35.2512 31.57C35.2489 31.5623 35.2428 31.5553 35.2359 31.5468C35.2243 31.5074 35.2021 31.4688 35.1721 31.4371L31.0506 27.0402C30.9869 26.9706 30.8963 26.9428 30.8095 26.9559C29.2739 26.9142 27.313 26.9768 25.4941 27.7194C25.4664 27.7627 23.1055 28.7495 21.2252 31.104C21.2244 31.1048 21.2236 31.1056 21.2229 31.1071C20.7315 31.7918 20.4643 32.2639 20.4036 32.352H20.4021C20.3514 32.4162 20.3061 32.4749 20.2639 32.529C20.1871 32.665 20.0335 33.0622 19.6757 32.5042C19.6328 32.4494 19.5859 32.3899 19.5375 32.3265C19.4953 32.267 19.351 32.0166 19.0984 31.6364C19.093 31.6295 19.0892 31.6225 19.0838 31.6164C17.2426 28.9689 16.0072 28.3167 14.444 27.6947C14.4333 27.6908 14.4233 27.6862 14.4133 27.6823C12.6067 26.9528 10.6626 26.891 9.13625 26.9312C9.04795 26.9181 8.95351 26.9459 8.88671 27.0154L4.76597 31.4131C4.73602 31.4464 4.71299 31.485 4.70147 31.5267C4.69456 31.5337 4.69072 31.5399 4.68842 31.546C4.61164 31.7531 4.68842 31.8899 4.68842 31.8899C4.74217 31.988 4.84275 32.0367 4.9011 32.0615C6.79141 31.4232 9.64376 30.9526 12.5107 31.3961C17.2234 32.1256 19.341 34.0134 19.926 34.2228L20.1318 34.2267C20.5625 34.2267 22.4367 32.1936 27.4305 31.4201C30.2959 30.9765 33.149 31.4479 35.0401 32.0854C35.0969 32.0615 35.199 32.012 35.2527 31.9139C35.2527 31.9139 35.328 31.7771 35.2527 31.5708L35.2512 31.57ZM12.1237 30.7632C9.44337 30.4905 7.32656 30.7493 6.04818 31.0461L9.31207 27.5633H9.31284C9.89483 27.5749 13.1841 27.4443 15.3984 28.785C16.2061 29.2757 16.8994 29.941 17.4983 30.6466C17.4991 30.6466 17.4991 30.6473 17.4991 30.6473C18.1839 31.4525 18.7429 32.3095 19.2051 33.0112C17.7977 32.3559 14.821 31.0391 12.1237 30.7625V30.7632ZM27.8151 30.7895C25.1163 31.0638 22.1411 32.3822 20.7338 33.0382C21.6014 31.7215 22.8068 29.8622 24.5405 28.8121C26.754 27.4698 30.0425 27.6004 30.6252 27.5888H30.6268L33.8922 31.0739C32.6123 30.7756 30.4947 30.516 27.8151 30.7903V30.7895Z" fill="#D3D7E4" stroke="#D3D7E4" stroke-miterlimit="10"/>
<path d="M33.8921 31.071C32.613 30.7727 30.4954 30.5139 27.815 30.7866C25.1162 31.061 22.1403 32.3793 20.7329 33.0353C21.6005 31.7186 22.806 29.8594 24.5404 28.8092C26.7539 27.4677 30.0424 27.5983 30.6252 27.5859H30.6267L33.8921 31.0702V31.071Z" fill="#617196"/>
<path d="M19.205 33.0104C17.7977 32.3551 14.8217 31.0375 12.1229 30.7617C9.44331 30.4881 7.32651 30.7478 6.04736 31.0445L9.31125 27.5625H9.31279C9.89478 27.5741 13.1848 27.4427 15.3976 28.7842C16.206 29.2749 16.8994 29.9402 17.4975 30.6458C17.499 30.6458 17.499 30.6473 17.499 30.6473C18.1839 31.4525 18.7421 32.3095 19.205 33.0111V33.0104Z" fill="#617196"/>
<path d="M34.6113 31.9479V33.5205C33.7191 33.1859 31.2929 32.5252 27.0516 33.2083C24.2691 33.6565 20.5292 35.3442 19.981 35.8457C19.538 35.3789 15.7152 33.6403 12.8851 33.1836C7.7923 32.3629 5.44592 33.5112 5.25781 33.5777L5.26165 31.941C7.15196 31.3027 9.64114 30.9496 12.5081 31.3939C17.2208 32.1241 19.3384 34.0112 19.9234 34.2214L20.1284 34.2252C20.5599 34.2252 22.4341 32.1921 27.4271 31.4186C30.2932 30.9751 32.7179 31.3104 34.6098 31.9479H34.6113Z" fill="#D3D7E4" stroke="#D3D7E4" stroke-miterlimit="10"/>
</svg>
