<svg width="39" height="38" viewBox="0 0 39 38" fill="none" xmlns="http://www.w3.org/2000/svg">
<path d="M38.5123 13.5024C38.5108 13.4064 38.5071 13.3051 38.5019 13.2008C38.4502 12.2165 38.3552 10.4174 37.3233 9.79749C37.2118 9.73021 37.1137 9.69241 37.0696 9.67578H35.4375V13.5031H38.5116L38.5123 13.5024Z" fill="#D3D7E4"/>
<path d="M38.5123 13.4187C38.5108 13.5147 38.5071 13.616 38.5019 13.7203C38.4502 14.7046 38.3552 16.5037 37.3233 17.1236C37.2118 17.1909 37.1137 17.2287 37.0696 17.2453H35.4375V13.418H38.5116L38.5123 13.4187Z" fill="#D3D7E4"/>
<path d="M0 13.436C0.00149663 13.34 0.00523817 13.2387 0.0104764 13.1344C0.0621102 12.1501 0.157146 10.351 1.18907 9.73108C1.30057 9.6638 1.3986 9.62601 1.44275 9.60938H3.07483V13.4367H0.000747905L0 13.436Z" fill="#D3D7E4"/>
<path d="M0 13.3523C0.00149663 13.4483 0.00523817 13.5496 0.0104764 13.6539C0.0621102 14.6382 0.157146 16.4373 1.18907 17.0572C1.30057 17.1245 1.3986 17.1623 1.44275 17.1789H3.07483V13.3516H0.000747905L0 13.3523Z" fill="#D3D7E4"/>
<path d="M2.11645 13.4338C2.09699 12.9099 2.02665 11.0367 2.47564 9.32222C3.07055 7.04985 4.44446 5.56592 5.10897 4.84777C8.8064 0.853352 14.7046 0.359718 17.4397 0.131422C19.7206 -0.0590761 24.6804 -0.412859 29.6507 2.1876C32.8715 3.87185 34.2394 5.82521 34.559 6.29919C35.9044 8.29716 36.2539 10.2165 36.3549 10.8946C36.4791 11.7329 36.8563 14.5549 35.2773 17.5462C33.777 20.3893 31.3614 21.6253 29.8902 22.3835C27.8413 23.4395 26.1569 23.7041 23.7847 24.0768C19.6757 24.7216 16.449 24.3875 15.0459 24.1977C13.0134 23.9226 10.9129 23.6194 8.46142 22.3835C7.37337 21.8347 5.96953 21.1105 4.63079 19.6023C4.08003 18.9825 2.63952 17.3186 2.23618 14.886C2.15162 14.3765 2.13666 13.9773 2.11645 13.4346V13.4338Z" fill="#D3D7E4"/>
<path d="M33.6012 11.9834C33.6281 14.8023 32.0731 16.7572 31.446 17.5464C30.8406 18.3061 29.9441 19.4348 28.333 20.0856C27.0085 20.6216 25.7663 20.6057 25.22 20.5702C25.1831 20.5677 24.345 20.4061 22.7057 20.0856C21.6401 19.8777 21.0152 19.7583 20.1494 19.7167C19.6443 19.6925 19.2238 19.7031 18.9349 19.7167C18.6453 19.7031 18.2248 19.6925 17.7196 19.7167C16.8546 19.7583 16.229 19.8777 15.1634 20.0856C13.5261 20.4051 12.688 20.5667 12.649 20.5702C12.1028 20.6057 10.8613 20.6223 9.53605 20.0856C7.92567 19.4348 7.02844 18.3061 6.42306 17.5464C5.79597 16.7572 4.24171 14.8023 4.26791 11.9834C4.27165 11.6417 4.30607 10.4571 4.86656 9.08055C5.7361 6.94803 7.27464 5.80504 8.09929 5.21086C8.87679 4.64919 9.51136 4.19109 10.4931 4.00059C11.5625 3.79422 12.4956 4.01193 13.4857 4.24325C14.6328 4.51085 14.8229 4.73159 15.8795 4.9682C16.9362 5.20481 17.8274 5.22598 18.3939 5.21086H19.4714C20.0379 5.22598 20.9284 5.20481 21.9858 4.9682C23.0424 4.73159 23.2325 4.51085 24.3797 4.24325C25.3697 4.01193 26.3028 3.79422 27.3722 4.00059C28.354 4.19109 28.9885 4.64919 29.766 5.21086C30.5907 5.80504 32.13 6.94803 32.9988 9.08055C33.5592 10.4571 33.5937 11.6417 33.5974 11.9834H33.6012Z" fill="#617196"/>
<path d="M8.67328 11.8551H7.28516V12.2641C7.61965 12.2361 8.10007 12.2157 8.67328 12.2641C9.9776 12.3737 10.9205 12.7645 12.0594 13.2483C12.8609 13.5885 13.467 13.8508 14.1914 14.3883C14.6935 14.761 15.0676 15.1291 15.3198 15.402C15.5226 14.2454 15.4246 13.3088 15.3198 12.7283C15.1904 12.0116 15.0482 11.2269 14.4421 10.4604C14.2243 10.1852 13.7648 9.61904 12.9372 9.32045C12.6798 9.22746 11.8027 8.94928 10.8052 9.32045C9.8429 9.67876 9.36622 10.4181 9.17466 10.7144C8.98458 11.0085 8.86934 11.2791 8.79825 11.4749L8.67254 11.8551H8.67328Z" fill="#D3D7E4"/>
<path d="M29.9766 11.7262C30.439 11.7262 30.9023 11.7262 31.3647 11.7262V12.1352C31.0302 12.1072 30.5498 12.0868 29.9766 12.1352C28.6723 12.2448 27.7294 12.6356 26.5905 13.1194C25.789 13.4596 25.1829 13.7219 24.4585 14.2594C23.9564 14.6321 23.5822 15.0002 23.33 15.2731C23.1272 14.1165 23.2253 13.1799 23.33 12.5993C23.4595 11.8827 23.6017 11.098 24.2078 10.3315C24.4256 10.0563 24.885 9.49014 25.7127 9.19154C25.9701 9.09856 26.8471 8.82037 27.8446 9.19154C28.807 9.54986 29.2836 10.2892 29.4752 10.5855C29.6653 10.8796 29.7805 11.1502 29.8516 11.346L29.9773 11.7262H29.9766Z" fill="#D3D7E4"/>
<path d="M17.0783 14.2605C16.9923 13.9558 16.9571 13.692 16.9414 13.5C17.1075 13.7245 17.549 14.2559 18.3213 14.5137C19.1018 14.7738 19.7611 14.6014 20.0769 14.5137C20.8439 14.3013 21.3452 13.8651 21.5817 13.627C21.5817 13.7805 21.5667 14.0042 21.4919 14.2605C21.2884 14.9597 20.6994 15.6998 19.8254 15.9077C19.1878 16.0596 18.6633 15.8654 18.4455 15.7807C18.2337 15.699 17.6411 15.47 17.3171 14.894C17.1943 14.6763 17.1285 14.4419 17.0776 14.2605H17.0783Z" fill="#D3D7E4"/>
<path d="M23.4097 24.9258H14.4628C14.383 24.9258 14.3184 24.9911 14.3184 25.0717V36.9552C14.3184 37.0357 14.383 37.1011 14.4628 37.1011H23.4097C23.4894 37.1011 23.5541 37.0357 23.5541 36.9552V25.0717C23.5541 24.9911 23.4894 24.9258 23.4097 24.9258Z" fill="#D3D7E4" stroke="#D3D7E4" stroke-miterlimit="10"/>
<path d="M22.1934 26.0078H15.6786C15.5988 26.0078 15.5342 26.0731 15.5342 26.1537V28.1713C15.5342 28.2519 15.5988 28.3172 15.6786 28.3172H22.1934C22.2732 28.3172 22.3379 28.2519 22.3379 28.1713V26.1537C22.3379 26.0731 22.2732 26.0078 22.1934 26.0078Z" fill="#617196"/>
<path d="M16.5856 29H15.5911C15.5596 29 15.5342 29.0257 15.5342 29.0575V30.2957C15.5342 30.3274 15.5596 30.3531 15.5911 30.3531H16.5856C16.617 30.3531 16.6424 30.3274 16.6424 30.2957V29.0575C16.6424 29.0257 16.617 29 16.5856 29Z" fill="#617196"/>
<path d="M22.2809 29H21.2864C21.255 29 21.2295 29.0257 21.2295 29.0575V30.2957C21.2295 30.3274 21.255 30.3531 21.2864 30.3531H22.2809C22.3123 30.3531 22.3377 30.3274 22.3377 30.2957V29.0575C22.3377 29.0257 22.3123 29 22.2809 29Z" fill="#617196"/>
<path d="M18.4479 29H17.4534C17.4219 29 17.3965 29.0257 17.3965 29.0575V30.2957C17.3965 30.3274 17.4219 30.3531 17.4534 30.3531H18.4479C18.4793 30.3531 18.5047 30.3274 18.5047 30.2957V29.0575C18.5047 29.0257 18.4793 29 18.4479 29Z" fill="#617196"/>
<path d="M20.3649 29H19.3703C19.3389 29 19.3135 29.0257 19.3135 29.0575V30.2957C19.3135 30.3274 19.3389 30.3531 19.3703 30.3531H20.3649C20.3963 30.3531 20.4217 30.3274 20.4217 30.2957V29.0575C20.4217 29.0257 20.3963 29 20.3649 29Z" fill="#617196"/>
<path d="M16.5856 30.8594H15.5911C15.5596 30.8594 15.5342 30.8851 15.5342 30.9168V32.1551C15.5342 32.1868 15.5596 32.2125 15.5911 32.2125H16.5856C16.617 32.2125 16.6424 32.1868 16.6424 32.1551V30.9168C16.6424 30.8851 16.617 30.8594 16.5856 30.8594Z" fill="#617196"/>
<path d="M22.2809 30.8594H21.2864C21.255 30.8594 21.2295 30.8851 21.2295 30.9168V32.1551C21.2295 32.1868 21.255 32.2125 21.2864 32.2125H22.2809C22.3123 32.2125 22.3377 32.1868 22.3377 32.1551V30.9168C22.3377 30.8851 22.3123 30.8594 22.2809 30.8594Z" fill="#617196"/>
<path d="M18.4479 30.8594H17.4534C17.4219 30.8594 17.3965 30.8851 17.3965 30.9168V32.1551C17.3965 32.1868 17.4219 32.2125 17.4534 32.2125H18.4479C18.4793 32.2125 18.5047 32.1868 18.5047 32.1551V30.9168C18.5047 30.8851 18.4793 30.8594 18.4479 30.8594Z" fill="#617196"/>
<path d="M20.3649 30.8594H19.3703C19.3389 30.8594 19.3135 30.8851 19.3135 30.9168V32.1551C19.3135 32.1868 19.3389 32.2125 19.3703 32.2125H20.3649C20.3963 32.2125 20.4217 32.1868 20.4217 32.1551V30.9168C20.4217 30.8851 20.3963 30.8594 20.3649 30.8594Z" fill="#617196"/>
<path d="M16.5592 32.7148H15.5647C15.5333 32.7148 15.5078 32.7406 15.5078 32.7723V34.0105C15.5078 34.0423 15.5333 34.068 15.5647 34.068H16.5592C16.5906 34.068 16.6161 34.0423 16.6161 34.0105V32.7723C16.6161 32.7406 16.5906 32.7148 16.5592 32.7148Z" fill="#617196"/>
<path d="M18.4215 32.7148H17.427C17.3956 32.7148 17.3701 32.7406 17.3701 32.7723V34.0105C17.3701 34.0423 17.3956 34.068 17.427 34.068H18.4215C18.4529 34.068 18.4784 34.0423 18.4784 34.0105V32.7723C18.4784 32.7406 18.4529 32.7148 18.4215 32.7148Z" fill="#617196"/>
<path d="M20.3375 32.7148H19.343C19.3116 32.7148 19.2861 32.7406 19.2861 32.7723V34.0105C19.2861 34.0423 19.3116 34.068 19.343 34.068H20.3375C20.3689 34.068 20.3944 34.0423 20.3944 34.0105V32.7723C20.3944 32.7406 20.3689 32.7148 20.3375 32.7148Z" fill="#617196"/>
<path d="M16.5319 34.5742H15.5373C15.5059 34.5742 15.4805 34.5999 15.4805 34.6317V35.8699C15.4805 35.9016 15.5059 35.9274 15.5373 35.9274H16.5319C16.5633 35.9274 16.5887 35.9016 16.5887 35.8699V34.6317C16.5887 34.5999 16.5633 34.5742 16.5319 34.5742Z" fill="#617196"/>
<path d="M18.3942 34.5742H17.3996C17.3682 34.5742 17.3428 34.5999 17.3428 34.6317V35.8699C17.3428 35.9016 17.3682 35.9274 17.3996 35.9274H18.3942C18.4256 35.9274 18.451 35.9016 18.451 35.8699V34.6317C18.451 34.5999 18.4256 34.5742 18.3942 34.5742Z" fill="#617196"/>
<path d="M20.3111 34.5742H19.3166C19.2852 34.5742 19.2598 34.5999 19.2598 34.6317V35.8699C19.2598 35.9016 19.2852 35.9274 19.3166 35.9274H20.3111C20.3426 35.9274 20.368 35.9016 20.368 35.8699V34.6317C20.368 34.5999 20.3426 34.5742 20.3111 34.5742Z" fill="#617196"/>
<path d="M22.2809 32.7148H21.2864C21.255 32.7148 21.2295 32.7406 21.2295 32.7723V35.8687C21.2295 35.9004 21.255 35.9261 21.2864 35.9261H22.2809C22.3123 35.9261 22.3377 35.9004 22.3377 35.8687V32.7723C22.3377 32.7406 22.3123 32.7148 22.2809 32.7148Z" fill="#617196"/>
</svg>
