<svg width="40" height="40" viewBox="0 0 40 40" fill="none" xmlns="http://www.w3.org/2000/svg">
<mask id="mask0_15919_19070" style="mask-type:alpha" maskUnits="userSpaceOnUse" x="0" y="0" width="40" height="40">
<rect width="40" height="40" fill="#D9D9D9"/>
</mask>
<g mask="url(#mask0_15919_19070)">
<path d="M9.99967 23.332H29.9997V19.9987H9.99967V23.332ZM9.99967 18.332H29.9997V14.9987H9.99967V18.332ZM9.99967 13.332H29.9997V9.9987H9.99967V13.332ZM6.66634 29.9987C5.74967 29.9987 4.96495 29.6723 4.31217 29.0195C3.6594 28.3668 3.33301 27.582 3.33301 26.6654V6.66536C3.33301 5.7487 3.6594 4.96398 4.31217 4.3112C4.96495 3.65842 5.74967 3.33203 6.66634 3.33203H33.333C34.2497 3.33203 35.0344 3.65842 35.6872 4.3112C36.34 4.96398 36.6663 5.7487 36.6663 6.66536V36.6654L29.9997 29.9987H6.66634Z" fill="#D3D7E4"/>
</g>
</svg>
