<?xml version="1.0" standalone="no"?>
<!DOCTYPE svg PUBLIC "-//W3C//DTD SVG 20010904//EN"
 "http://www.w3.org/TR/2001/REC-SVG-20010904/DTD/svg10.dtd">
<svg version="1.0" xmlns="http://www.w3.org/2000/svg"
 width="260.000000pt" height="260.000000pt" viewBox="0 0 260.000000 260.000000"
 preserveAspectRatio="xMidYMid meet">
<metadata>
Created by potrace 1.11, written by Peter Selinger 2001-2013
</metadata>
<g transform="translate(0.000000,260.000000) scale(0.100000,-0.100000)"
fill="#000000" stroke="none">
<path d="M143 2397 c-45 -17 -92 -62 -114 -110 -18 -40 -19 -82 -19 -985 l0
-943 21 -42 c46 -89 107 -119 246 -119 132 0 207 49 237 154 17 62 14 1880 -3
1923 -21 51 -58 91 -105 114 -37 17 -64 21 -138 20 -51 0 -107 -6 -125 -12z"/>
<path d="M1502 2389 c-52 -26 -97 -79 -109 -128 -5 -20 -8 -452 -8 -971 2
-828 4 -939 18 -970 20 -44 62 -85 109 -104 47 -20 189 -23 246 -6 53 16 117
83 131 137 13 49 14 1863 1 1913 -13 49 -66 109 -114 131 -61 28 -216 27 -274
-2z"/>
<path d="M2210 2399 c-47 -19 -92 -62 -115 -110 -19 -41 -22 -64 -20 -146 1
-72 6 -107 20 -132 22 -44 82 -101 106 -101 10 0 20 -4 23 -9 4 -5 50 -9 105
-9 113 1 157 16 207 73 38 42 54 100 54 188 0 124 -44 205 -132 241 -43 18
-207 21 -248 5z"/>
<path d="M816 2020 c-55 -28 -76 -48 -100 -101 -22 -46 -22 -48 -21 -805 1
-510 5 -767 12 -785 19 -44 66 -91 111 -111 63 -28 214 -28 268 0 53 28 83 58
105 106 17 39 18 83 19 786 0 457 -4 759 -10 780 -14 49 -66 109 -114 131 -59
27 -216 26 -270 -1z"/>
<path d="M2226 1739 c-46 -13 -101 -56 -127 -102 l-24 -42 -1 -605 c0 -341 4
-621 9 -642 13 -51 68 -112 119 -133 45 -18 169 -23 230 -10 68 15 128 74 148
146 15 49 12 1209 -2 1252 -17 51 -46 85 -95 113 -39 23 -57 27 -137 29 -50 1
-104 -2 -120 -6z"/>
</g>
</svg>
