<svg width="232" height="267" viewBox="0 0 232 267" fill="none" xmlns="http://www.w3.org/2000/svg">
<path d="M25.8962 0C43.9053 0 51.354 12.1299 51.354 12.1299V48.4649C51.3128 48.5385 51.2712 48.6117 51.2294 48.6846C51.3129 48.5769 51.354 48.5195 51.354 48.5195V154.821C46.804 162.797 38.3181 166.786 25.8962 166.786C13.4744 166.786 4.98848 162.797 0.438477 154.821V48.5195L0.45114 48.5387C0.47347 48.5722 0.525524 48.6487 0.608829 48.7623L0.438477 48.4649V12.1299C0.438477 12.1299 0.5193 11.9837 0.687995 11.7236L0.813552 11.5336C2.4552 9.09379 9.66287 0 25.8962 0Z" fill="#CCDE1E"/>
<path d="M85.7966 0C103.806 0 111.254 12.1299 111.254 12.1299V48.4649C111.213 48.5385 111.172 48.6117 111.13 48.6846C111.213 48.5769 111.254 48.5195 111.254 48.5195V154.821C106.704 162.797 98.2185 166.786 85.7966 166.786C73.3748 166.786 64.8889 162.797 60.3389 154.821V48.5195L60.3515 48.5387C60.3739 48.5722 60.4259 48.6487 60.5092 48.7623L60.3389 48.4649V12.1299C60.3389 12.1299 60.4197 11.9837 60.5884 11.7236L60.7139 11.5336C62.3556 9.09379 69.5633 0 85.7966 0Z" fill="#EC2661"/>
<path d="M145.697 0C163.706 0 171.155 12.1299 171.155 12.1299V48.4649C171.114 48.5385 171.072 48.6117 171.03 48.6846C171.114 48.5769 171.155 48.5195 171.155 48.5195V154.821C166.605 162.797 158.119 166.786 145.697 166.786C133.275 166.786 124.789 162.797 120.239 154.821V48.5195L120.252 48.5387C120.274 48.5722 120.326 48.6487 120.41 48.7623L120.239 48.4649V12.1299C120.239 12.1299 120.32 11.9837 120.489 11.7236L120.614 11.5336C122.256 9.09379 129.464 0 145.697 0Z" fill="#FF9900"/>
<path d="M180.14 62.166V154.821C184.69 162.798 193.176 166.786 205.598 166.786C218.02 166.786 226.506 162.798 231.056 154.821V62.166C231.056 62.166 223.607 69.5571 205.598 69.5571C186.85 69.5571 180.14 62.166 180.14 62.166Z" fill="#00A6F6"/>
<path d="M180.14 12.1299V51.4974C184.69 57.5987 193.176 60.6494 205.598 60.6494C218.02 60.6494 226.506 57.5987 231.056 51.4974V12.1299C231.056 12.1299 223.607 0 205.598 0C186.85 0 180.14 12.1299 180.14 12.1299Z" fill="#00A6F6"/>
<path d="M12.8711 226.153V265.947H4.33398V216.285H12.4121L12.8711 226.153ZM11.127 239.234L7.17969 239.097C7.21029 235.7 7.65397 232.564 8.51074 229.688C9.36751 226.781 10.6374 224.256 12.3203 222.114C14.0033 219.972 16.0993 218.32 18.6084 217.157C21.1175 215.964 24.0244 215.367 27.3291 215.367C29.6546 215.367 31.7965 215.704 33.7549 216.377C35.7132 217.02 37.4115 218.045 38.8496 219.452C40.2878 220.86 41.4046 222.665 42.2002 224.868C42.9958 227.071 43.3936 229.733 43.3936 232.854V265.947H34.9023V233.268C34.9023 230.667 34.4587 228.586 33.5713 227.025C32.7145 225.465 31.4906 224.333 29.8994 223.629C28.3083 222.895 26.4417 222.527 24.2998 222.527C21.7907 222.527 19.6947 222.971 18.0117 223.858C16.3288 224.746 14.9824 225.97 13.9727 227.53C12.9629 229.091 12.2285 230.881 11.7695 232.9C11.3411 234.889 11.127 237.001 11.127 239.234ZM43.3018 234.553L37.6104 236.297C37.641 233.574 38.0846 230.957 38.9414 228.448C39.8288 225.939 41.0986 223.705 42.751 221.747C44.4339 219.789 46.4993 218.243 48.9473 217.111C51.3952 215.949 54.195 215.367 57.3467 215.367C60.0088 215.367 62.3649 215.719 64.415 216.423C66.4958 217.127 68.2399 218.213 69.6475 219.682C71.0856 221.12 72.1719 222.971 72.9062 225.235C73.6406 227.5 74.0078 230.192 74.0078 233.313V265.947H65.4707V233.222C65.4707 230.437 65.027 228.28 64.1396 226.75C63.2829 225.189 62.0589 224.103 60.4678 223.491C58.9072 222.849 57.0407 222.527 54.8682 222.527C53.0016 222.527 51.3493 222.849 49.9111 223.491C48.473 224.134 47.2643 225.021 46.2852 226.153C45.306 227.255 44.5563 228.525 44.0361 229.963C43.5465 231.401 43.3018 232.931 43.3018 234.553ZM96.085 216.285V265.947H87.5479V216.285H96.085ZM86.9053 203.112C86.9053 201.735 87.3184 200.573 88.1445 199.624C89.0013 198.675 90.2559 198.201 91.9082 198.201C93.5299 198.201 94.7692 198.675 95.626 199.624C96.5133 200.573 96.957 201.735 96.957 203.112C96.957 204.428 96.5133 205.56 95.626 206.509C94.7692 207.427 93.5299 207.886 91.9082 207.886C90.2559 207.886 89.0013 207.427 88.1445 206.509C87.3184 205.56 86.9053 204.428 86.9053 203.112ZM130.509 216.285V222.803H103.658V216.285H130.509ZM112.746 204.214H121.237V253.646C121.237 255.329 121.497 256.599 122.018 257.456C122.538 258.313 123.211 258.879 124.037 259.154C124.863 259.43 125.751 259.567 126.699 259.567C127.403 259.567 128.137 259.506 128.902 259.384C129.698 259.231 130.295 259.108 130.692 259.017L130.738 265.947C130.065 266.161 129.178 266.36 128.076 266.544C127.005 266.758 125.705 266.865 124.175 266.865C122.094 266.865 120.182 266.452 118.438 265.626C116.693 264.8 115.301 263.423 114.261 261.495C113.251 259.537 112.746 256.905 112.746 253.601V204.214ZM161.077 266.865C157.619 266.865 154.483 266.284 151.668 265.121C148.883 263.928 146.481 262.26 144.462 260.118C142.473 257.976 140.943 255.437 139.872 252.499C138.801 249.562 138.266 246.349 138.266 242.86V240.933C138.266 236.894 138.862 233.298 140.056 230.146C141.249 226.964 142.871 224.271 144.921 222.068C146.971 219.865 149.297 218.198 151.897 217.065C154.498 215.933 157.191 215.367 159.976 215.367C163.525 215.367 166.585 215.979 169.155 217.203C171.756 218.427 173.883 220.141 175.535 222.344C177.188 224.516 178.411 227.087 179.207 230.055C180.003 232.992 180.4 236.205 180.4 239.693V243.503H143.314V236.572H171.909V235.93C171.787 233.727 171.328 231.585 170.532 229.504C169.767 227.423 168.543 225.71 166.86 224.363C165.177 223.017 162.882 222.344 159.976 222.344C158.048 222.344 156.273 222.757 154.651 223.583C153.03 224.379 151.637 225.572 150.475 227.163C149.312 228.754 148.409 230.697 147.767 232.992C147.124 235.287 146.803 237.934 146.803 240.933V242.86C146.803 245.216 147.124 247.435 147.767 249.516C148.44 251.566 149.404 253.371 150.658 254.932C151.943 256.492 153.489 257.716 155.294 258.604C157.13 259.491 159.211 259.935 161.536 259.935C164.535 259.935 167.075 259.323 169.155 258.099C171.236 256.875 173.057 255.238 174.617 253.188L179.758 257.272C178.687 258.894 177.325 260.439 175.673 261.908C174.021 263.377 171.986 264.57 169.568 265.488C167.182 266.406 164.351 266.865 161.077 266.865ZM210.188 259.889C212.208 259.889 214.075 259.476 215.788 258.649C217.502 257.823 218.909 256.691 220.011 255.253C221.112 253.784 221.74 252.117 221.893 250.25H229.971C229.818 253.188 228.823 255.926 226.987 258.466C225.182 260.975 222.811 263.01 219.873 264.57C216.936 266.1 213.707 266.865 210.188 266.865C206.455 266.865 203.197 266.207 200.412 264.892C197.658 263.576 195.363 261.771 193.527 259.476C191.722 257.181 190.36 254.549 189.442 251.581C188.555 248.582 188.111 245.415 188.111 242.08V240.152C188.111 236.817 188.555 233.665 189.442 230.697C190.36 227.699 191.722 225.052 193.527 222.757C195.363 220.462 197.658 218.657 200.412 217.341C203.197 216.025 206.455 215.367 210.188 215.367C214.075 215.367 217.471 216.163 220.378 217.754C223.285 219.314 225.564 221.456 227.217 224.18C228.9 226.872 229.818 229.932 229.971 233.359H221.893C221.74 231.309 221.158 229.458 220.148 227.806C219.169 226.153 217.823 224.838 216.109 223.858C214.426 222.849 212.453 222.344 210.188 222.344C207.588 222.344 205.4 222.864 203.625 223.904C201.881 224.914 200.489 226.291 199.448 228.035C198.438 229.749 197.704 231.661 197.245 233.772C196.817 235.853 196.603 237.98 196.603 240.152V242.08C196.603 244.253 196.817 246.395 197.245 248.506C197.674 250.617 198.393 252.53 199.402 254.243C200.443 255.957 201.835 257.334 203.579 258.374C205.354 259.384 207.557 259.889 210.188 259.889Z" fill="#F6F7F9"/>
</svg>
