<svg viewBox="0 0 101 27" xmlns="http://www.w3.org/2000/svg" xml:space="preserve" style="fill-rule:evenodd;clip-rule:evenodd;stroke-linejoin:round;stroke-miterlimit:2"><path d="M97.4 17.9c-.6.1-.7.2-.5.7l1.1 3.1c.112-.3.253-.684.401-1.09l.298-.82c.148-.406.288-.79.401-1.09.1-.5 0-.6-.6-.7v-.4h2.4v.3h.1c-.7.1-.8.2-1.1 1-.3.7-.8 1.8-1.6 3.8-.9 2.1-1.1 2.9-1.4 3.7-.1.3-.3.3-.5.3-.4 0-.9-.4-.9-.8 0-.2.1-.3.3-.5.5-.3.8-.6 1-1 .2-.3.3-.5.3-.7.1-.2 0-.4 0-.6-.6-1.8-1.3-3.5-1.6-4.2-.3-.6-.4-.8-1.1-.9v-.4h3v.3zM12.6 0C5.6 0 0 5.7 0 12.6 0 19 4.8 24.4 11.1 25.1v-1.8c-2.1-.3-4.2-1-5.5-2.9h14.2c-1.4 1.9-3.5 2.6-5.5 2.9v1.8c6.2-.8 11.1-6.1 11.1-12.5C25.3 5.6 19.6 0 12.6 0zM36 23c-.3.1-1.5.2-2.4.5v-.8l-.8.5c-.4.2-.6.3-.8.3-1.1 0-2.6-.9-2.6-2.9 0-1.8 1.6-3.3 3.5-3.3.1 0 .4 0 .7.1v-1.7c0-.8-.1-.8-.9-.9v-.4c.8-.1 1.8-.3 2.4-.5v7.7c0 .7.1.8.6.8h.3v.6zm58.4-.9c-.8 1.1-1.8 1.4-2.3 1.4-1.7 0-2.7-1.3-2.7-2.8 0-1 .4-1.8.9-2.3.6-.6 1.3-.9 2-.9 1.2 0 2.1 1 2.1 2.1 0 .3-.1.4-.4.5-.2 0-1.8.2-3.2.2 0 1.6.9 2.3 1.8 2.3.5 0 1-.2 1.5-.6l.3.1zm-52.9 0c-.8 1.1-1.8 1.4-2.3 1.4-1.7 0-2.7-1.3-2.7-2.8 0-1 .4-1.8.9-2.3.6-.6 1.3-.9 2-.9 1.2 0 2.1 1 2.1 2.1 0 .3-.1.4-.4.5-.2 0-1.8.2-3.2.2 0 1.6.9 2.3 1.8 2.3.5 0 1-.2 1.5-.6l.3.1zm37.4 0c-.8 1.1-1.8 1.4-2.3 1.4-1.7 0-2.7-1.3-2.7-2.8 0-1 .4-1.8.9-2.3.6-.6 1.3-.9 2-.9 1.2 0 2.1 1 2.1 2.1 0 .3-.1.4-.4.5-.2 0-1.8.2-3.2.2 0 1.6.9 2.3 1.8 2.3.5 0 1-.2 1.5-.6l.3.1zm-6.2 1.2c-.2.1-.4.2-.5.2-.9 0-1.5-.5-1.5-1.6v-3.7h-.9l-.1-.1.4-.4h.6v-1l1.3-1 .2.1v1.9h1.4c.1.1.1.5-.1.6h-1.3v3.3c0 1 .5 1.2.8 1.2.3 0 .5-.1.7-.2l.1.4-1.1.3zm-10.2-3c0 2.1-1.5 3.2-3 3.2-2 0-3-1.5-3-2.9 0-2.1 1.7-3.2 3.1-3.2 1.7 0 2.9 1.3 2.9 2.9zm4.2 3.1v-.5c.6-.1.7-.1.7-1.1v-2.2c0-.9-.4-1.3-1-1.3-.4 0-.8.2-1.1.5V22c0 .8.1.9.7 1v.4h-3.1v-.5c.8-.1.9-.1.9-1v-2.7c0-.8-.1-.9-.7-1v-.3c.7-.1 1.5-.3 2.2-.5v1c.3-.2.5-.4.8-.6.4-.3.7-.4 1.1-.4 1.1 0 1.7.8 1.7 2.1V22c0 .8.1.9.8 1v.4h-3zm-14.4-.1v-.4c1-.1 1.1-.2 1.1-1.5v-5.2h-.1l-3 7H50l-2.8-6.8h-.1l-.2 3.6c-.1 1.1-.1 1.7 0 2.2 0 .6.3.7 1.2.8v.4H45v-.5c.8-.1 1-.3 1.1-.8.1-.4.2-1.1.3-2.5l.2-2.7c.1-1.6 0-1.7-1.1-1.8v-.4H48l2.7 6.1 2.8-6.1H56v.4c-1.1.1-1.1.2-1.1 1.4l.1 4.9c0 1.3.1 1.4 1.2 1.5v.4h-3.9zm29.4-4.5c.4-.8 1-1.4 1.5-1.4s.8.4.8.8-.3.7-.6.8c-.2.1-.3 0-.4 0-.2-.2-.4-.3-.6-.3-.3 0-.6.2-.9.8v2.4c0 .8.1.9 1.1 1v.4h-3.4v-.4c.8-.1.9-.1.9-1v-2.8c0-.8-.1-.8-.8-.9v-.3c.7-.1 1.5-.3 2.2-.5l.2 1.4zm5.2 0c.4-.8 1-1.4 1.5-1.4s.8.4.8.8-.3.7-.6.8c-.2.1-.3 0-.4 0-.2-.2-.4-.3-.6-.3-.3 0-.6.2-.9.8v2.4c0 .8.1.9 1.1 1v.4h-3.4v-.4c.8-.1.9-.1.9-1v-2.8c0-.8-.1-.8-.8-.9v-.3c.7-.1 1.5-.3 2.2-.5l.2 1.4zm-28.8 1.3c0 1.6.6 2.9 1.5 2.9.6 0 1.2-.4 1.2-2.3 0-1.7-.5-2.8-1.5-2.8-.6 0-1.2.7-1.2 2.2zm-24.5-1.5c-.3-.5-.7-.7-1.1-.7-.5 0-1.5.4-1.5 2.4 0 1.6.9 2.3 1.6 2.3.3 0 .6-.1.9-.3v-3.7h.1zm-23.5-5.9c.6-.6 4.5-4.4 5.3-5.2 2.4-2.4 2.3-3.1 2.3-3.1 1 2.5-.4 3.8-1.2 4.7-.9.9-3.3 3.3-4.7 4.6-3.4 3.4-2.2 6.1-2.2 6.1-2.2-1.6-1.7-4.9.5-7.1zm9.3-2.4c-.9.9-2.6 2.5-3.9 3.8-3.2 2.9-3.3 4.8-3.1 5.7-2.4-2.8-.5-4.9.7-6 .6-.5 4-3.9 4.7-4.7 2.8-2.6 2.8-3.4 2.8-3.4 1 2.5-.4 3.7-1.2 4.6zm-.1 4.1c-.8.8-.5.5-1.9 1.8-2.2 2.2-2.2 3.6-2.2 3.6-1.2-1.3-.5-3.6.8-4.9.6-.5 1.6-1.5 2.3-2.2 1.5-1.4 2-1.8 2.2-2.4.6 2.4-.6 3.5-1.2 4.1zM38 19.5h1.8c.2 0 .3-.1.3-.3 0-.7-.3-1.3-.9-1.3-.6 0-1.1.6-1.2 1.6zm37.4 0h1.8c.2 0 .3-.1.3-.3 0-.7-.3-1.3-.9-1.3-.5 0-1.1.6-1.2 1.6zm15.5 0h1.8c.2 0 .3-.1.3-.3 0-.7-.3-1.3-.9-1.3-.5 0-1 .6-1.2 1.6zM8.7 10c.6-.6 3.9-3.9 5.1-5 2.4-2.3 2.2-3.2 2.3-3.7 1.7 1.7.6 3.4-.3 4.3-.8.8-4.5 4.5-6 5.9-.4.3-2.9 2.6-2.7 4.7-1.3-1.7-1-3.9 1.6-6.2zm-3-.9c.6-.6 4.8-4.7 5.5-5.4C12.9 1.9 12.6.5 12.6.5c2 1.5 1.3 3.2.2 4.3-.9.9-4 4-5.5 5.4-2.3 2.2-2 4.1-1.6 5.6-1.7-1.7-2.5-4.1 0-6.7zm71.2-3.3c-.1.2-.3.6-.6.8l-.8-.1c.2.3.4.6.4 1.1 0 1.4-1.2 2.1-2.4 2.1-.2 0-.4 0-.7-.1-.1.1-.3.3-.3.4 0 .2.2.5.8.5h1.3c.8 0 2 .2 2 1.6 0 1.5-1.7 2.7-3.4 2.7-1.6 0-2.4-.9-2.4-1.6 0-.3.1-.5.4-.7.3-.3.7-.5 1-.8-.5-.2-.8-.4-1-.7-.1-.2-.2-.5-.2-.6.6-.2 1.1-.6 1.3-.8-.7-.3-1.2-.9-1.2-1.8 0-1.5 1.4-2.2 2.5-2.2.5 0 .9.1 1.4.3.6-.1 1.3-.1 1.9-.1zM72.5 12c-.3.2-.4.5-.4.8 0 .7.7 1.3 1.7 1.3 1.1 0 1.7-.6 1.7-1.3 0-.5-.3-.8-.7-.9-.3-.1-.7-.1-1.2-.1-.6-.1-.9 0-1.1.2zm-2.3-3.5c0 2.1-1.5 3.2-3 3.2-2 0-3-1.5-3-2.9 0-2.1 1.7-3.2 3.1-3.2 1.7-.1 2.9 1.3 2.9 2.9zM60 8.5c0 2.1-1.5 3.2-3 3.2-2 0-3-1.5-3-2.9 0-2.1 1.7-3.2 3.1-3.2 1.8-.1 2.9 1.3 2.9 2.9zm-9.4 3.2v-.6c.6-.1.7-.1.7-1.1V7.8c0-.9-.4-1.3-1-1.3-.4 0-.8.2-1.1.5v3.2c0 .8.1.9.7 1v.4h-3.1v-.4c.8-.1.9-.1.9-1V7.5c0-.8-.1-.9-.7-1v-.3c.7-.1 1.5-.3 2.2-.5v1c.3-.2.5-.4.8-.6.4-.3.7-.4 1.1-.4 1.1 0 1.7.8 1.7 2.1v2.5c0 .8.1.9.8 1v.4h-3zm41.7-3.2c0 2.1-1.5 3.2-3 3.2-2 0-3-1.5-3-2.9 0-2.1 1.7-3.2 3.1-3.2 1.7-.1 2.9 1.3 2.9 2.9zm-51.6 1.8c-.8 1.1-1.8 1.4-2.3 1.4-1.7 0-2.7-1.3-2.7-2.8 0-1 .4-1.8.9-2.3.6-.6 1.3-.9 2-.9 1.2 0 2.1 1 2.1 2.1 0 .3-.1.4-.4.5-.2 0-1.8.2-3.2.2 0 1.6.9 2.3 1.8 2.3.5 0 1-.2 1.5-.6l.3.1zm45.2-.1c-.6.8-1.5 1.4-2.3 1.4-1.8 0-2.8-1.4-2.8-2.8 0-1 .5-1.9 1.3-2.5.8-.6 1.6-.8 2.1-.8s.9.2 1.1.3c.2.1.2.3.2.5 0 .3-.3.7-.5.7-.1 0-.2 0-.3-.1-.5-.4-.9-.6-1.3-.6-.6 0-1.3.6-1.3 2 0 1.8 1.3 2.4 1.9 2.4.6 0 .9-.1 1.5-.6l.4.1zm-39.5 0c-.6.8-1.5 1.4-2.3 1.4-1.8 0-2.8-1.4-2.8-2.8 0-1 .5-1.9 1.3-2.5.8-.6 1.6-.8 2.1-.8s.9.2 1.1.3c.2.1.2.3.2.5 0 .3-.3.7-.5.7-.1 0-.2 0-.3-.1-.5-.4-.9-.6-1.3-.6-.6 0-1.3.6-1.3 2 0 1.8 1.3 2.4 1.9 2.4.6 0 .9-.1 1.5-.6l.4.1zm30.7 1.3v-.4c.8-.1.9-.1.9-1.1V7.3c0-.8-.1-.9-.8-1v-.4c.8-.1 1.5-.3 2.2-.5v4.5c0 .9.1 1 .9 1.1v.4h-3.2v.1zm-16.7 0v-.4c.8-.1.9-.2.9-1V3.9c0-.8-.1-.9-.8-1v-.4c.7-.1 1.7-.3 2.3-.5v7.9c0 .9.1.9.9 1v.4h-3.3v.2zM29.2 2.7c0 .8-.1 1.5-.1 2.3h.4c.2-.6.3-1.1.5-1.3.2-.3.4-.4 1.5-.4h.6v6.4c0 1.1-.1 1.2-1.3 1.3v.4h4.1V11c-1.2-.1-1.3-.2-1.3-1.3V3.3h.7c.8 0 1.1.1 1.4.3.2.2.4.6.5 1.3h.4c-.1-.7-.1-1.5-.1-2.2h-7.3zm26.5 5.5c0 1.6.6 2.9 1.5 2.9.6 0 1.2-.4 1.2-2.3 0-1.7-.5-2.8-1.5-2.8-.6 0-1.2.7-1.2 2.2zm10.1 0c0 1.6.6 2.9 1.5 2.9.6 0 1.2-.4 1.2-2.3C68.5 7.1 68 6 67 6c-.6 0-1.2.7-1.2 2.2zm22.1 0c0 1.6.6 2.9 1.5 2.9.6 0 1.2-.4 1.2-2.3 0-1.7-.5-2.8-1.5-2.8-.6 0-1.2.7-1.2 2.2zm-15.3-.7c0 1 .4 1.7 1 1.7.5 0 .9-.5.9-1.5 0-.9-.4-1.7-1-1.7-.5 0-.9.5-.9 1.5zm-35.4.2H39c.2 0 .3-.1.3-.3 0-.7-.3-1.3-.9-1.3-.6-.1-1.1.5-1.2 1.6zm29.5-2.9c.2-.6.6-1.9.7-2.1.1-.1 1.1-.2 1.3-.1l.1.1L67.1 5l-.4-.2zm11.1-1.1c0-.5.4-.8.8-.8.5 0 .8.4.8.8s-.4.8-.8.8c-.4.1-.8-.3-.8-.8z" style="fill:#fcfcfc;fill-rule:nonzero"/></svg>