<?xml version="1.0" encoding="UTF-8" standalone="no"?><!DOCTYPE svg PUBLIC "-//W3C//DTD SVG 1.1//EN" "http://www.w3.org/Graphics/SVG/1.1/DTD/svg11.dtd"><svg width="100%" height="100%" viewBox="0 0 26 26" version="1.1" xmlns="http://www.w3.org/2000/svg" xmlns:xlink="http://www.w3.org/1999/xlink" xml:space="preserve" xmlns:serif="http://www.serif.com/" style="fill-rule:evenodd;clip-rule:evenodd;stroke-linejoin:round;stroke-miterlimit:2;"><path d="M12.6,0c-7,-0 -12.6,5.7 -12.6,12.6c0,6.4 4.8,11.8 11.1,12.5l0,-1.8c-2.1,-0.3 -4.2,-1 -5.5,-2.9l14.2,0c-1.4,1.9 -3.5,2.6 -5.5,2.9l-0,1.8c6.2,-0.8 11.1,-6.1 11.1,-12.5c-0.1,-7 -5.8,-12.6 -12.8,-12.6Zm-2.5,12.7c0.6,-0.6 4.5,-4.4 5.3,-5.2c2.4,-2.4 2.3,-3.1 2.3,-3.1c1,2.5 -0.4,3.8 -1.2,4.7c-0.9,0.9 -3.3,3.3 -4.7,4.6c-3.4,3.4 -2.2,6.1 -2.2,6.1c-2.2,-1.6 -1.7,-4.9 0.5,-7.1Zm9.3,-2.4c-0.9,0.9 -2.6,2.5 -3.9,3.8c-3.2,2.9 -3.3,4.8 -3.1,5.7c-2.4,-2.8 -0.5,-4.9 0.7,-6c0.6,-0.5 4,-3.9 4.7,-4.7c2.8,-2.6 2.8,-3.4 2.8,-3.4c1,2.5 -0.4,3.7 -1.2,4.6Zm-0.1,4.1c-0.8,0.8 -0.5,0.5 -1.9,1.8c-2.2,2.2 -2.2,3.6 -2.2,3.6c-1.2,-1.3 -0.5,-3.6 0.8,-4.9c0.6,-0.5 1.6,-1.5 2.3,-2.2c1.5,-1.4 2,-1.8 2.2,-2.4c0.6,2.4 -0.6,3.5 -1.2,4.1Zm-10.6,-4.4c0.6,-0.6 3.9,-3.9 5.1,-5c2.4,-2.3 2.2,-3.2 2.3,-3.7c1.7,1.7 0.6,3.4 -0.3,4.3c-0.8,0.8 -4.5,4.5 -6,5.9c-0.4,0.3 -2.9,2.6 -2.7,4.7c-1.3,-1.7 -1,-3.9 1.6,-6.2Zm-3,-0.9c0.6,-0.6 4.8,-4.7 5.5,-5.4c1.7,-1.8 1.4,-3.2 1.4,-3.2c2,1.5 1.3,3.2 0.2,4.3c-0.9,0.9 -4,4 -5.5,5.4c-2.3,2.2 -2,4.1 -1.6,5.6c-1.7,-1.7 -2.5,-4.1 -0,-6.7Z" style="fill:#fcfcfc;fill-rule:nonzero;"/></svg>