<svg width="24" height="24" viewBox="0 0 24 24" fill="none" xmlns="http://www.w3.org/2000/svg">
<g clip-path="url(#clip0_7801_19951)">
<path d="M0 0H24V24H0" fill="#BD3D44"/>
<path d="M0 2.76465H24H0ZM0 6.44965H24H0ZM0 10.1496H24H0ZM0 13.8496H24H0ZM0 17.5496H24H0ZM0 21.2496H24H0Z" fill="black"/>
<path d="M0 3.76465H24V1.76465H0V3.76465ZM0 7.44965H24V5.44965H0V7.44965ZM0 11.1496H24V9.14965H0V11.1496ZM0 14.8496H24V12.8496H0V14.8496ZM0 18.5496H24V16.5496H0V18.5496ZM0 22.2496H24V20.2496H0V22.2496Z" fill="white"/>
<path d="M0 0H13.68V12.925H0" fill="#192F5D"/>
</g>
<defs>
<clipPath id="clip0_7801_19951">
<rect width="24" height="24" fill="white"/>
</clipPath>
</defs>
</svg>
